<svg xmlns="http://www.w3.org/2000/svg" width="768" height="734" viewBox="0 0 768 734">
<g>
<path d="M 347.00 720.91 C286.97,714.28 234.78,695.19 179.50,659.64 C133.19,629.86 98.44,594.79 82.76,562.00 C77.91,551.84 74.01,540.06 73.34,533.50 C72.50,525.39 70.70,522.00 67.22,521.99 C63.14,521.96 52.16,519.24 46.50,516.85 C38.99,513.68 33.47,509.50 31.61,505.59 C30.05,502.30 30.05,501.85 31.72,498.29 C33.54,494.43 37.46,491.72 55.66,481.76 C70.23,473.78 85.66,464.05 89.21,460.61 C91.24,458.62 92.59,457.00 92.21,456.99 C86.49,456.92 66.54,454.52 59.57,453.06 C48.00,450.64 32.27,445.02 25.39,440.84 C21.50,438.49 19.48,436.43 18.03,433.34 C16.93,431.00 14.46,426.64 12.55,423.65 C4.27,410.70 6.12,392.32 17.34,376.01 C19.78,372.46 20.52,370.20 20.83,365.35 C21.17,360.00 20.82,358.43 18.17,353.35 C11.48,340.53 9.63,331.76 11.09,319.80 C12.10,311.53 15.14,305.24 22.72,295.71 C25.60,292.08 28.17,286.22 30.92,276.95 C36.77,257.29 39.51,253.42 54.73,243.41 C67.01,235.34 77.03,226.06 85.44,215.00 C93.72,204.10 98.66,201.00 107.76,201.00 C117.47,201.00 121.76,203.88 143.48,224.98 C163.16,244.10 172.74,252.23 176.80,253.26 C178.70,253.74 179.88,252.85 183.62,248.17 C186.11,245.05 188.42,241.82 188.75,241.00 C189.08,240.18 189.84,239.18 190.43,238.78 C193.36,236.81 192.36,236.10 130.60,196.46 L 95.70 174.06 L 92.24 177.10 C85.94,182.63 81.27,183.36 77.35,179.44 C75.19,177.28 74.90,176.33 75.48,173.24 C77.02,165.07 89.36,146.11 102.02,132.50 C108.32,125.73 108.17,125.26 96.48,115.03 C89.16,108.62 85.97,105.14 85.51,103.05 C84.73,99.49 86.00,96.87 89.39,95.06 C93.07,93.09 98.78,95.55 108.02,103.09 C117.12,110.51 118.51,111.29 121.13,110.46 C122.27,110.10 128.89,104.56 135.85,98.15 C157.91,77.82 163.52,74.53 170.10,78.05 C172.50,79.34 174.24,78.38 194.29,64.80 C202.17,59.47 214.46,52.19 221.61,48.62 C238.76,40.06 268.48,28.10 280.50,24.93 C282.15,24.50 285.98,23.40 289.00,22.49 C302.66,18.40 316.52,15.52 335.00,12.92 C342.98,11.79 351.75,10.42 354.50,9.86 C360.41,8.66 403.67,9.32 415.50,10.79 C425.57,12.04 434.64,13.62 448.00,16.46 C451.58,17.22 457.65,18.51 461.50,19.32 C465.35,20.14 471.20,21.69 474.50,22.76 C477.80,23.83 483.20,25.48 486.50,26.42 C492.05,28.00 514.56,36.44 521.50,39.55 C544.98,50.04 558.09,57.42 575.95,70.17 C584.07,75.98 588.93,78.84 589.95,78.42 C590.80,78.07 593.30,77.56 595.50,77.29 C598.95,76.87 600.36,77.38 605.71,80.96 C612.85,85.74 635.89,105.70 638.68,109.54 C641.02,112.74 643.41,112.05 650.00,106.27 C656.13,100.90 664.75,95.10 667.71,94.36 C673.01,93.03 677.07,97.61 675.63,103.32 C675.31,104.62 670.41,109.57 664.53,114.55 C658.74,119.45 654.00,123.94 654.00,124.53 C654.00,125.12 656.18,128.05 658.84,131.05 C666.57,139.76 679.78,157.98 683.02,164.41 C686.76,171.83 686.88,176.21 683.43,179.66 C681.30,181.79 680.23,182.14 677.26,181.66 C675.29,181.33 671.97,179.71 669.90,178.04 C667.82,176.37 665.50,175.00 664.74,175.00 C662.87,175.00 598.77,216.19 598.26,217.72 C598.04,218.38 599.84,221.08 602.27,223.72 C604.70,226.35 610.10,233.45 614.28,239.50 C618.45,245.55 624.49,254.29 627.68,258.93 C630.88,263.57 634.86,268.82 636.53,270.59 C641.18,275.54 643.32,274.55 654.20,262.38 C670.51,244.14 680.10,239.56 690.14,245.20 C695.22,248.05 699.06,254.18 703.84,267.08 C710.46,284.91 713.95,290.64 726.21,303.85 C731.22,309.24 735.16,314.64 737.19,318.88 C740.22,325.20 740.39,326.23 741.01,341.50 C741.74,359.67 741.81,359.90 750.94,374.00 C760.59,388.91 761.84,396.35 756.41,406.57 C755.09,409.06 753.49,413.21 752.86,415.80 C751.45,421.55 749.54,425.50 746.11,429.71 C744.68,431.48 742.39,434.37 741.04,436.13 C738.04,440.03 724.14,446.83 712.00,450.33 C702.47,453.08 688.49,455.52 676.51,456.54 L 668.52 457.22 L 672.51 460.64 C676.23,463.82 687.19,470.85 696.50,476.01 C700.61,478.29 707.99,482.52 720.84,489.95 C728.65,494.47 731.78,498.83 730.43,503.32 C728.04,511.28 712.09,519.69 695.46,521.76 L 689.50 522.51 L 688.69 530.00 C686.75,547.85 674.09,573.59 656.88,594.65 C638.68,616.92 605.48,644.87 574.79,663.76 C521.80,696.38 470.46,714.77 416.35,720.51 C401.35,722.10 359.93,722.34 347.00,720.91 ZM 355.50 708.95 C370.31,710.18 403.52,709.44 419.49,707.52 C426.63,706.66 439.00,704.63 446.99,703.01 C491.05,694.04 537.17,674.10 579.32,645.79 C626.33,614.22 656.34,582.03 672.05,546.30 C679.69,528.91 678.52,522.28 665.55,509.50 C657.40,501.48 649.00,496.25 638.10,492.43 C613.43,483.77 608.49,479.36 588.59,448.25 C583.23,439.86 578.26,433.00 577.55,433.00 C576.84,433.00 574.80,436.71 573.02,441.25 C561.31,471.11 536.32,503.92 508.50,525.99 C482.65,546.48 450.05,561.94 418.53,568.63 C402.04,572.13 372.02,573.04 355.00,570.56 C288.07,560.80 227.15,517.71 195.54,457.76 C190.81,448.78 189.04,444.87 184.88,434.14 C183.53,430.67 182.47,431.91 169.73,451.88 C153.37,477.52 144.60,485.37 125.31,491.64 C113.73,495.41 104.80,500.49 96.90,507.80 C81.15,522.38 80.38,530.79 92.64,554.62 C109.48,587.33 138.08,616.58 182.04,646.03 C237.01,682.85 295.14,703.94 355.50,708.95 ZM 366.50 559.34 C373.96,560.23 388.56,559.88 400.07,558.53 C437.67,554.13 474.03,538.26 504.13,513.09 C519.17,500.52 536.00,482.14 536.00,478.29 C536.00,477.51 529.34,470.04 521.20,461.69 C505.46,445.53 501.57,439.77 500.39,430.85 C499.78,426.25 499.59,426.02 496.12,425.48 C478.05,422.65 466.29,418.06 458.27,410.69 C452.80,405.67 451.00,401.78 451.00,395.00 C451.00,387.38 454.55,381.55 467.35,368.12 C479.26,355.62 482.00,351.42 482.00,345.68 C482.00,342.78 481.24,341.50 477.75,338.45 C475.41,336.42 471.02,333.57 468.00,332.13 L 462.50 329.50 L 298.40 329.50 L 290.75 333.28 C279.35,338.91 276.27,343.84 279.57,351.15 C280.57,353.37 286.30,360.43 292.30,366.84 C308.50,384.16 312.18,391.99 308.56,401.48 C306.22,407.62 303.56,410.68 296.76,415.08 C289.93,419.49 282.07,422.29 269.58,424.75 L 260.66 426.50 L 259.38 432.83 C257.52,442.00 254.69,446.08 238.51,462.96 C230.53,471.28 224.00,478.51 224.00,479.02 C224.00,480.41 235.46,493.51 243.98,501.87 C259.55,517.12 275.17,528.38 293.98,537.91 C318.57,550.38 337.07,555.84 366.50,559.34 ZM 213.22 146.49 C235.37,173.16 253.62,194.98 253.76,194.99 C253.91,194.99 256.61,192.89 259.76,190.32 C283.36,171.07 315.35,157.47 349.00,152.37 C364.77,149.98 396.27,149.97 412.00,152.35 C446.27,157.52 477.20,170.73 501.90,190.72 C504.87,193.13 507.62,194.74 508.01,194.30 C513.53,188.11 588.27,97.45 588.63,96.52 C589.21,95.01 573.54,82.34 561.00,74.17 C549.19,66.48 522.93,53.10 508.00,47.18 C451.73,24.85 395.65,16.78 343.39,23.51 C283.14,31.26 221.41,55.82 180.69,88.25 C175.14,92.67 172.08,95.77 172.42,96.64 C172.71,97.40 191.07,119.83 213.22,146.49 ZM 297.29 316.03 C299.05,316.45 336.95,316.83 381.50,316.88 C450.71,316.94 462.17,317.61 470.96,313.08 C473.96,311.54 476.64,309.40 481.21,306.42 C494.26,297.91 503.59,290.28 512.65,280.74 C519.08,273.96 529.14,260.40 530.64,256.48 C531.25,254.91 520.71,242.00 518.82,242.00 C518.26,242.00 513.79,245.38 508.87,249.50 C503.95,253.62 499.33,257.00 498.60,257.00 C496.41,257.00 492.00,252.99 492.00,251.01 C492.00,247.63 493.06,246.31 501.57,239.00 L 510.03 231.74 L 501.61 223.00 C491.12,212.11 489.57,209.31 490.35,202.57 L 490.94 197.50 L 483.72 192.86 C422.98,153.79 343.42,152.89 280.88,190.57 L 269.84 197.22 L 270.50 202.00 C271.38,208.42 269.33,212.23 259.10,223.16 L 250.99 231.82 L 258.25 238.01 C262.24,241.41 266.33,245.29 267.35,246.62 C269.66,249.64 268.91,253.36 265.55,255.56 C262.65,257.46 260.91,256.76 253.69,250.77 C251.05,248.58 248.71,246.96 248.49,247.17 C248.28,247.39 251.07,250.91 254.70,255.00 C258.33,259.09 262.58,264.20 264.15,266.37 C269.37,273.57 267.36,280.74 258.91,285.05 C256.76,286.14 255.00,287.21 255.00,287.41 C255.00,287.62 258.61,290.73 263.03,294.34 C272.66,302.21 292.81,314.97 297.29,316.03 ZM 490.50 412.35 C491.60,412.58 494.38,412.82 496.68,412.88 L 500.86 413.00 L 504.55 405.33 C517.27,378.88 552.23,364.38 588.25,370.61 L 592.00 371.26 L 592.00 367.35 C592.00,363.14 593.60,360.28 598.43,355.82 C601.23,353.23 601.35,352.90 599.73,351.94 C590.41,346.38 591.36,338.13 602.13,331.20 C607.63,327.66 609.30,324.92 606.87,323.42 C606.15,322.97 605.94,320.82 606.30,317.36 C606.61,314.41 606.78,312.00 606.68,312.00 C606.58,312.00 604.03,312.96 601.00,314.12 C597.97,315.29 592.01,316.61 587.73,317.06 C576.57,318.22 572.79,320.62 565.74,331.01 C559.77,339.82 556.37,342.35 553.20,340.36 C550.33,338.57 550.65,334.44 554.17,327.84 C558.63,319.47 566.01,311.63 572.36,308.52 C575.69,306.89 580.62,305.61 585.84,305.02 C595.24,303.95 598.39,302.21 602.96,295.56 C607.18,289.43 615.31,282.43 620.53,280.44 C622.99,279.50 625.00,278.38 625.00,277.95 C625.00,277.06 599.39,239.06 593.52,231.25 C591.24,228.22 589.97,226.26 588.24,225.66 C585.22,224.62 580.79,227.69 567.20,236.37 C553.15,245.34 552.91,245.55 553.56,248.50 C555.96,259.43 553.45,264.31 545.25,264.63 C542.64,264.73 540.19,264.86 539.81,264.91 C539.44,264.96 536.69,268.71 533.72,273.25 C522.84,289.87 512.56,299.83 491.28,314.42 C485.10,318.65 479.82,322.48 479.54,322.94 C479.25,323.40 480.70,325.06 482.76,326.62 C484.82,328.18 487.92,331.01 489.66,332.90 L 492.82 336.33 L 498.67 330.42 C511.36,317.59 527.05,304.00 529.18,304.00 C532.06,304.00 535.00,306.78 535.00,309.50 C535.00,313.23 529.55,319.49 517.78,329.29 C504.31,340.52 501.07,344.00 493.44,355.46 C490.24,360.26 483.51,368.54 478.48,373.85 C462.59,390.61 460.52,394.89 465.45,400.76 C469.45,405.51 479.10,409.98 490.50,412.35 ZM 682.47 507.79 C684.01,509.01 686.66,509.99 688.38,509.98 C696.81,509.94 716.97,503.38 715.58,501.14 C715.28,500.64 709.55,497.20 702.85,493.50 C678.85,480.23 641.74,456.36 640.63,453.48 C640.28,452.58 640.00,450.76 640.00,449.44 C640.00,444.84 642.75,444.24 666.50,443.66 C680.47,443.32 691.23,442.55 695.98,441.57 C704.49,439.80 718.73,435.24 719.47,434.05 C719.74,433.61 718.06,432.95 715.73,432.58 C705.89,431.03 683.24,422.30 658.06,410.35 C643.45,403.41 628.05,396.25 623.83,394.44 C605.51,386.57 586.05,382.01 570.71,382.00 C546.88,381.99 523.94,393.89 516.10,410.34 C512.76,417.34 511.27,424.00 513.05,424.00 C513.68,424.00 518.76,422.44 524.34,420.54 C538.13,415.83 551.19,413.70 563.00,414.21 C579.17,414.91 584.11,418.81 601.12,444.33 C618.03,469.72 622.09,473.55 637.35,478.59 C652.89,483.72 667.40,492.29 675.60,501.18 C677.83,503.60 680.92,506.58 682.47,507.79 ZM 62.21 508.47 C65.67,509.23 70.53,509.87 73.00,509.91 C77.33,509.98 77.74,509.72 83.77,503.04 C93.75,491.99 106.92,484.05 125.16,478.08 C132.96,475.52 141.22,469.91 146.12,463.83 C148.04,461.45 154.36,452.30 160.17,443.50 C176.88,418.17 182.45,414.05 200.00,414.03 C213.69,414.01 220.93,415.24 235.35,420.05 C241.87,422.22 247.44,424.00 247.73,424.00 C248.96,424.00 247.08,414.80 244.94,410.34 C242.01,404.24 232.18,394.34 225.00,390.26 C212.31,383.06 191.08,380.27 173.00,383.43 C155.57,386.47 143.08,391.26 105.00,409.49 C78.36,422.25 66.24,427.04 50.61,431.00 L 39.73 433.75 L 45.61 435.97 C59.88,441.35 71.24,443.17 93.50,443.64 C105.05,443.89 115.53,444.31 116.78,444.57 C120.09,445.27 121.60,449.14 120.03,452.92 C119.10,455.17 114.96,458.43 103.64,465.81 C85.85,477.41 67.00,488.85 54.75,495.46 C49.94,498.05 45.75,500.60 45.43,501.11 C44.62,502.42 54.69,506.84 62.21,508.47 ZM 160.82 200.67 C190.89,220.02 215.80,235.89 216.16,235.93 C216.52,235.97 218.75,233.64 221.12,230.75 C223.48,227.86 229.90,220.90 235.38,215.27 C244.60,205.80 245.23,204.90 243.80,203.27 C242.96,202.30 224.15,179.68 202.01,153.00 C179.88,126.32 161.39,104.36 160.94,104.19 C159.98,103.82 144.94,117.25 136.90,125.65 C122.23,140.99 104.13,163.47 105.42,164.75 C105.82,165.15 130.75,181.31 160.82,200.67 ZM 538.41 229.25 C541.62,232.96 544.44,236.00 544.67,236.00 C545.97,236.00 655.50,164.99 655.50,164.15 C655.50,163.60 651.00,157.38 645.50,150.34 C634.55,136.32 602.72,103.69 600.49,104.19 C599.40,104.43 533.52,182.73 518.77,201.30 L 515.75 205.11 L 524.16 213.80 C528.78,218.59 535.20,225.54 538.41,229.25 ZM 22.99 417.32 C24.70,420.02 26.71,422.00 27.73,422.00 C36.23,421.98 58.57,416.21 73.00,410.30 C84.48,405.60 85.77,404.19 86.16,395.79 C86.35,391.90 86.03,388.63 85.41,388.01 C84.64,387.24 81.97,387.94 76.10,390.46 C56.41,398.88 43.24,399.19 37.07,391.37 C35.30,389.12 34.92,387.66 35.33,384.59 C36.02,379.44 40.32,375.20 52.66,367.52 C57.98,364.21 62.51,360.96 62.73,360.30 C63.03,359.42 61.37,359.25 56.32,359.67 C43.15,360.75 35.00,356.19 35.00,347.73 C35.00,341.82 38.74,336.75 48.51,329.39 C52.67,326.27 55.91,323.23 55.72,322.65 C55.52,322.07 53.98,321.23 52.28,320.79 C47.41,319.53 43.00,313.79 43.00,308.72 C43.01,302.63 45.57,299.23 56.13,291.31 C68.41,282.10 72.33,277.72 85.95,258.00 C92.21,248.93 98.45,240.15 99.80,238.50 C102.82,234.83 106.91,232.02 109.25,232.01 C112.60,231.99 118.84,239.13 131.62,257.63 C144.38,276.08 155.00,287.88 162.21,291.61 C164.96,293.03 165.27,292.95 169.04,289.96 C171.22,288.24 173.00,286.47 173.00,286.03 C173.00,285.59 171.76,284.45 170.25,283.49 C163.53,279.24 162.41,274.33 166.51,267.15 C167.88,264.75 169.00,262.68 169.00,262.53 C169.00,262.39 167.09,261.01 164.75,259.47 C157.21,254.51 146.86,245.56 130.29,229.66 C107.46,207.75 105.48,207.41 93.00,223.28 C81.02,238.51 74.34,244.56 60.81,252.40 C50.56,258.34 45.39,265.43 42.40,277.63 C40.07,287.11 35.91,296.01 30.15,303.86 C23.36,313.13 21.62,318.22 22.20,327.26 C22.59,333.22 23.53,336.43 27.44,345.02 C30.95,352.72 32.36,357.18 32.75,361.85 C33.28,368.13 33.22,368.34 26.48,381.58 C17.35,399.53 16.59,407.24 22.99,417.32 ZM 722.00 420.53 C726.12,421.22 730.76,421.84 732.30,421.90 C735.70,422.02 739.99,418.07 740.01,414.80 C740.02,413.53 741.59,408.90 743.51,404.51 C745.43,400.12 747.00,395.71 747.00,394.73 C747.00,391.76 744.46,386.59 738.69,377.82 C730.14,364.82 729.80,363.67 729.04,345.39 C728.43,330.70 728.14,328.81 725.70,323.81 C724.22,320.80 719.38,314.36 714.93,309.49 C702.45,295.82 698.21,288.74 691.96,271.13 C686.38,255.39 682.92,252.41 675.52,256.99 C671.14,259.69 659.00,272.76 659.00,274.76 C659.00,277.60 670.00,289.90 682.50,301.04 C692.42,309.87 695.20,312.93 696.13,316.03 C697.10,319.29 697.03,320.31 695.64,322.42 C693.17,326.20 693.58,327.28 698.53,329.91 C711.10,336.57 712.40,346.44 701.52,352.57 C699.79,353.55 700.02,353.92 704.17,356.77 C715.30,364.43 711.71,374.06 696.67,376.87 C691.49,377.84 681.58,376.69 676.38,374.51 C674.39,373.68 672.36,373.00 671.88,373.00 C671.40,373.00 671.00,379.46 671.00,387.35 C671.00,400.16 671.20,401.87 672.90,403.41 C675.39,405.66 696.40,414.17 706.52,417.01 C710.91,418.25 717.88,419.83 722.00,420.53 ZM 366.43 442.75 C362.72,446.48 362.28,446.58 359.13,444.38 C357.23,443.05 356.93,442.18 357.45,439.63 C358.55,434.29 359.05,432.14 358.38,430.44 C357.87,429.15 356.70,428.13 354.61,426.21 C349.12,421.15 345.34,420.73 339.73,424.53 C334.45,428.12 327.36,431.00 323.79,431.00 C319.98,431.00 315.57,426.56 311.44,418.57 C308.56,413.01 308.54,412.85 310.44,411.44 C311.67,410.53 314.80,410.00 319.00,410.00 L 325.62 410.00 L 329.90 403.53 C333.85,397.57 336.08,395.23 344.85,387.84 C347.12,385.92 348.00,384.33 348.00,382.11 C348.00,378.21 352.42,373.19 356.50,372.46 C363.55,371.20 368.94,379.02 366.14,386.44 C364.76,390.07 365.98,391.40 371.67,392.47 C374.49,392.99 375.68,392.71 377.41,391.08 C378.61,389.95 380.98,388.75 382.67,388.42 C385.16,387.92 386.06,388.25 387.37,390.12 C389.56,393.25 389.43,394.87 386.51,401.15 C383.30,408.04 383.29,410.00 386.43,410.00 C388.01,410.00 389.09,409.28 389.52,407.93 C389.88,406.80 391.47,404.39 393.06,402.59 L 395.94 399.31 L 393.47 395.96 C386.81,386.94 394.90,375.82 405.05,380.02 C408.47,381.44 410.11,383.92 410.94,388.94 C411.39,391.66 412.59,393.12 416.67,395.95 C419.51,397.92 423.70,401.87 425.97,404.73 L 430.11 409.93 L 439.70 410.21 C451.57,410.57 452.76,411.61 449.13,418.46 C445.48,425.34 440.21,431.00 437.46,431.00 C434.02,431.00 424.96,427.42 421.00,424.50 C415.95,420.78 412.07,421.18 406.47,426.03 C398.54,432.89 394.84,434.27 382.68,434.92 C373.23,435.43 371.72,435.75 370.76,437.50 C370.15,438.60 368.20,440.96 366.43,442.75 ZM 56.75 309.43 C58.55,311.26 68.09,309.21 76.49,305.18 C81.28,302.88 86.51,301.00 88.13,301.00 C89.74,301.00 93.73,302.12 97.00,303.50 C101.07,305.21 104.80,306.00 108.85,306.00 C112.72,306.00 117.06,305.14 121.40,303.50 C129.92,300.30 132.51,300.35 139.15,303.90 C142.14,305.49 146.93,307.50 149.79,308.35 L 155.00 309.89 L 155.00 306.09 C155.00,302.58 154.44,301.82 147.71,296.30 C138.56,288.79 130.96,279.33 119.53,261.21 C114.60,253.40 110.06,247.00 109.44,247.00 C107.75,247.00 105.89,249.45 98.69,261.17 C85.79,282.16 77.04,292.16 62.49,302.54 C56.02,307.16 55.33,307.99 56.75,309.43 ZM 258.33 411.25 C259.15,413.62 264.56,413.54 274.41,411.02 C287.61,407.65 297.00,401.14 297.00,395.37 C297.00,391.21 294.09,386.88 284.99,377.50 C280.18,372.55 274.40,366.02 272.13,363.00 L 268.02 357.50 L 258.76 357.43 C251.71,357.38 248.19,356.85 244.00,355.18 C233.97,351.21 232.41,352.49 232.82,364.38 C233.36,380.19 233.29,379.96 239.17,384.95 C249.63,393.82 254.71,400.79 258.33,411.25 ZM 49.75 347.44 C51.28,349.00 61.14,347.05 69.69,343.49 C82.72,338.06 83.14,338.05 87.97,342.97 C91.62,346.69 92.41,347.07 95.28,346.45 C97.05,346.07 100.62,344.68 103.22,343.38 C108.92,340.50 109.56,340.48 114.11,342.92 C116.08,343.98 119.63,345.36 122.00,346.00 C126.31,347.16 126.31,347.16 130.04,343.08 C132.24,340.68 134.67,339.00 135.97,339.00 C137.18,339.00 141.24,340.35 145.00,342.00 C148.76,343.65 152.24,345.00 152.73,345.00 C153.62,345.00 157.00,338.17 157.00,336.36 C157.00,335.83 153.82,332.76 149.94,329.52 C146.06,326.29 141.57,321.98 139.96,319.95 C135.49,314.31 131.98,313.24 125.65,315.59 C118.36,318.30 100.62,318.29 93.31,315.57 C88.30,313.71 87.97,313.71 84.19,315.41 C82.04,316.39 78.60,319.19 76.55,321.64 C74.50,324.08 67.46,330.39 60.91,335.65 C54.36,340.91 49.00,345.54 49.00,345.94 C49.00,346.34 49.34,347.01 49.75,347.44 ZM 525.00 638.89 C525.00,640.37 511.62,647.01 510.34,646.17 C508.37,644.87 482.68,592.92 483.59,592.06 C484.09,591.59 489.02,588.91 494.54,586.10 C502.85,581.88 505.49,581.00 509.86,581.00 C516.24,581.00 518.47,582.08 520.60,586.20 C522.79,590.42 521.96,596.95 518.60,602.03 L 515.95 606.03 L 518.71 607.08 C524.32,609.21 528.40,611.45 533.02,614.93 C538.54,619.09 545.23,626.79 544.72,628.39 C544.28,629.77 534.07,636.00 532.25,636.00 C531.52,636.00 529.25,633.25 527.21,629.89 C521.82,621.00 516.73,614.71 513.58,613.04 C511.00,611.66 510.72,611.72 509.00,614.00 C506.57,617.22 507.59,619.11 517.41,629.66 C521.58,634.14 525.00,638.30 525.00,638.89 ZM 204.11 315.96 C205.42,316.51 211.05,316.86 216.60,316.73 C226.67,316.50 226.73,316.48 231.60,312.66 C236.34,308.95 236.68,308.85 242.00,309.53 C250.04,310.57 258.71,310.63 259.67,309.65 C260.13,309.18 258.48,307.16 256.00,305.16 C253.52,303.17 247.32,297.49 242.21,292.55 C233.84,284.45 232.73,283.68 230.94,284.80 C229.85,285.49 226.44,286.99 223.36,288.14 C216.67,290.64 212.66,290.30 204.24,286.53 C198.64,284.01 198.03,283.93 195.36,285.33 C191.19,287.51 179.01,296.75 172.97,302.33 C168.14,306.79 167.86,307.29 169.35,308.78 C171.14,310.57 179.01,310.86 189.09,309.52 C194.40,308.82 194.86,308.94 198.20,311.87 C200.13,313.57 202.79,315.41 204.11,315.96 ZM 559.52 619.36 C556.50,621.36 553.16,623.00 552.10,623.00 C549.78,623.00 546.88,619.66 539.70,608.74 C526.52,588.71 522.00,574.08 527.02,567.70 C529.62,564.40 542.51,555.00 544.45,555.00 C545.26,555.00 547.82,557.81 550.14,561.25 C559.35,574.92 568.10,586.01 575.38,593.22 C579.98,597.78 582.80,601.33 582.46,602.14 C581.74,603.88 571.54,611.01 569.81,610.98 C569.09,610.96 565.68,605.90 562.24,599.73 C558.80,593.55 554.91,587.16 553.61,585.53 C551.47,582.85 551.07,582.70 549.46,584.03 C548.49,584.84 547.10,586.91 546.38,588.63 C543.78,594.86 547.91,601.98 558.53,609.56 C562.09,612.10 565.00,614.52 565.00,614.95 C565.00,615.37 562.53,617.36 559.52,619.36 ZM 239.73 626.50 C236.23,632.55 232.72,637.61 231.93,637.74 C230.41,637.99 219.00,631.31 219.00,630.17 C219.00,629.80 223.23,625.58 228.39,620.78 C237.05,612.75 247.00,601.04 247.00,598.90 C247.00,596.04 240.03,599.71 229.21,608.27 C225.74,611.00 222.62,612.95 222.26,612.59 C221.90,612.23 222.17,609.36 222.86,606.22 C225.88,592.58 226.86,585.49 225.87,584.50 C224.49,583.12 222.56,585.81 217.97,595.50 C214.58,602.65 211.24,612.47 209.56,620.25 C209.23,621.76 208.50,623.00 207.93,623.00 C205.98,623.00 196.00,616.02 196.00,614.66 C196.00,613.90 199.52,608.32 203.82,602.26 C208.12,596.19 215.14,585.32 219.43,578.11 C225.37,568.13 227.72,565.00 229.27,565.00 C232.01,565.00 238.00,569.68 237.99,571.80 C237.98,572.74 236.91,578.22 235.59,584.00 C234.28,589.78 233.33,594.63 233.47,594.78 C233.61,594.94 235.71,593.40 238.12,591.38 C251.04,580.50 255.73,579.67 264.89,586.65 C265.11,586.81 260.97,593.37 255.69,601.22 C250.41,609.08 243.23,620.45 239.73,626.50 ZM 189.10 600.25 C186.71,603.96 184.48,606.99 184.13,606.99 C183.13,606.96 172.00,596.92 172.00,596.03 C172.00,595.59 177.40,590.42 184.00,584.54 C190.60,578.66 196.00,573.26 196.00,572.54 C196.00,571.82 194.36,570.45 192.36,569.50 C184.77,565.90 177.56,571.13 171.37,584.71 C169.55,588.72 167.79,592.00 167.48,592.00 C167.17,592.00 164.68,589.91 161.96,587.36 C158.74,584.36 157.00,581.90 157.00,580.38 C157.00,575.71 179.71,554.10 190.86,548.15 C195.27,545.81 198.08,545.00 201.86,545.00 C206.72,545.00 207.26,545.29 214.97,552.09 C219.38,555.99 223.00,559.42 223.00,559.70 C223.00,559.99 217.93,565.68 211.72,572.36 C198.92,586.14 195.23,590.69 189.10,600.25 ZM 51.60 384.16 C51.88,384.62 52.45,385.00 52.85,385.00 C55.32,385.00 65.81,381.60 72.72,378.56 C82.06,374.46 87.23,374.06 93.00,377.00 C97.65,379.37 100.91,379.54 103.56,377.53 C106.12,375.59 110.93,375.62 114.89,377.60 C118.48,379.38 121.14,379.01 127.91,375.78 C131.83,373.90 132.76,373.81 136.41,374.91 C143.52,377.06 145.95,377.27 149.01,375.99 C150.66,375.31 152.00,374.45 152.00,374.07 C152.00,373.69 149.19,371.31 145.75,368.78 C142.31,366.25 138.18,362.79 136.56,361.09 C133.89,358.27 133.06,358.00 127.32,358.00 C123.44,358.00 119.00,357.23 115.76,356.00 C109.24,353.52 108.28,353.52 102.86,355.98 C100.02,357.26 96.30,357.96 92.21,357.98 C85.96,358.00 85.85,358.05 78.01,364.43 C73.66,367.97 65.82,373.67 60.59,377.10 C55.36,380.52 51.31,383.70 51.60,384.16 ZM 208.92 348.51 C212.29,350.35 218.38,350.37 221.88,348.56 C223.40,347.77 226.34,345.07 228.39,342.56 C233.02,336.92 234.71,336.82 244.22,341.61 C252.18,345.62 263.01,347.51 262.99,344.89 C262.98,343.29 246.06,323.17 243.54,321.76 C242.29,321.07 239.71,321.91 233.62,325.00 C225.83,328.95 224.92,329.17 216.78,329.15 C206.48,329.12 201.06,327.82 194.88,323.89 C191.21,321.56 189.76,321.14 187.88,321.86 C185.33,322.83 168.73,342.02 168.15,344.67 C167.86,346.02 168.72,346.19 173.89,345.81 C178.39,345.49 181.83,344.41 187.04,341.69 C196.33,336.83 197.98,336.92 202.60,342.55 C204.65,345.06 207.49,347.74 208.92,348.51 ZM 380.52 660.25 L 380.54 680.00 L 374.52 679.98 C365.69,679.96 365.50,679.71 367.37,670.68 C368.23,666.52 369.24,660.16 369.60,656.55 L 370.28 650.00 L 367.36 650.00 C360.38,650.00 357.04,656.78 359.08,666.78 C359.72,669.92 360.46,673.96 360.73,675.75 L 361.22 679.00 L 356.33 679.00 C353.40,679.00 350.50,678.34 349.08,677.35 C346.79,675.74 346.74,675.41 347.37,665.75 C348.57,647.40 352.42,633.85 357.92,628.58 C360.60,626.01 361.01,625.94 371.09,626.21 L 381.50 626.50 L 381.00 633.50 C380.73,637.35 380.51,649.39 380.52,660.25 ZM 262.45 643.75 C262.03,648.07 261.29,650.98 260.62,650.95 C258.92,650.88 247.35,645.37 246.70,644.32 C246.38,643.81 248.94,637.12 252.37,629.45 C255.80,621.78 261.04,609.54 264.01,602.25 C267.80,592.96 269.90,589.00 271.03,589.00 C274.64,589.00 289.63,596.29 292.75,599.56 C295.44,602.39 296.00,603.75 296.00,607.53 C296.00,618.55 288.04,624.55 270.82,626.49 L 265.14 627.13 L 264.14 631.81 C263.60,634.39 262.83,639.76 262.45,643.75 ZM 601.51 584.87 C595.18,590.99 589.64,596.00 589.19,596.00 C588.74,596.00 582.32,589.60 574.93,581.77 C567.55,573.95 558.16,564.03 554.08,559.73 L 546.66 551.92 L 551.58 546.85 C561.08,537.06 567.83,532.00 571.40,532.00 C575.27,532.00 578.00,534.56 578.00,538.21 C578.00,541.90 575.60,543.59 572.42,542.15 C568.61,540.41 566.46,540.74 563.08,543.59 C558.53,547.42 558.93,550.75 564.75,557.41 C567.36,560.39 569.78,562.87 570.12,562.92 C570.46,562.96 570.97,560.94 571.26,558.42 C571.90,552.73 576.14,547.76 579.97,548.21 C583.77,548.65 583.62,551.57 579.58,556.04 C574.42,561.76 575.06,567.02 581.66,573.13 C587.82,578.83 591.79,579.37 596.08,575.08 C600.51,570.64 600.08,567.61 593.76,558.72 C592.72,557.26 592.77,556.77 594.00,555.99 C594.83,555.47 596.40,555.31 597.50,555.63 C600.76,556.57 613.00,569.18 613.00,571.59 C613.00,573.01 609.12,577.49 601.51,584.87 ZM 482.67 657.90 C477.81,659.61 473.29,661.00 472.61,661.00 C469.86,661.00 467.88,658.06 464.97,649.60 C461.54,639.67 461.41,635.64 464.50,635.24 C466.04,635.04 467.00,636.13 468.65,639.92 C472.09,647.80 478.95,650.05 484.03,644.97 C489.03,639.97 484.09,633.09 472.29,628.60 C458.92,623.51 453.45,617.92 454.29,610.21 C454.87,604.94 457.02,602.41 463.50,599.37 C468.48,597.03 478.14,596.12 480.60,597.77 C482.09,598.76 484.00,602.51 484.00,604.43 C484.00,606.17 480.56,610.00 479.01,610.00 C478.46,610.00 476.81,608.65 475.34,607.00 C473.38,604.80 471.78,604.00 469.33,604.00 C466.05,604.00 462.00,606.81 462.00,609.10 C462.00,611.43 468.00,615.63 474.60,617.92 C484.22,621.25 488.96,623.71 492.84,627.36 C499.31,633.45 502.44,643.32 499.62,648.77 C497.90,652.09 495.37,653.45 482.67,657.90 ZM 402.78 678.52 C401.90,679.26 391.32,679.89 390.40,679.26 C389.73,678.80 389.04,672.26 388.64,662.50 C388.27,653.70 387.53,642.30 386.98,637.16 C386.44,632.02 386.25,627.41 386.56,626.91 C386.87,626.41 389.29,626.00 391.95,626.00 L 396.78 626.00 L 401.07 634.25 C403.43,638.79 406.88,645.88 408.75,650.00 L 412.13 657.50 L 411.60 649.28 C411.28,644.41 410.02,637.93 408.50,633.40 C407.08,629.18 406.06,625.62 406.21,625.48 C406.37,625.34 408.81,624.92 411.63,624.54 L 416.77 623.84 L 417.50 638.17 C417.90,646.05 418.77,657.79 419.42,664.26 C420.07,670.73 420.31,676.50 419.95,677.08 C419.59,677.66 417.57,677.99 415.46,677.82 L 411.62 677.50 L 407.85 668.00 C403.31,656.56 396.75,643.75 395.15,643.22 C392.33,642.28 395.26,658.81 400.03,670.74 C401.69,674.89 402.93,678.39 402.78,678.52 ZM 210.87 277.08 C215.07,278.43 220.82,277.39 225.22,274.47 C230.49,270.99 235.76,270.29 240.98,272.37 C245.36,274.13 251.55,274.54 252.42,273.13 C252.72,272.65 249.19,267.50 244.58,261.69 C239.98,255.88 235.99,250.54 235.71,249.81 C235.40,248.99 232.91,251.01 229.00,255.28 C219.58,265.55 214.81,267.24 208.99,262.34 C206.07,259.88 205.86,259.30 206.23,254.59 C206.45,251.79 206.98,248.73 207.41,247.79 C207.99,246.50 207.37,245.58 204.84,244.04 C203.00,242.92 201.18,242.01 200.80,242.00 C200.41,242.00 198.13,245.04 195.73,248.75 C193.33,252.46 188.33,259.22 184.63,263.77 C180.93,268.31 178.18,272.47 178.51,273.02 C179.42,274.49 185.58,274.20 189.65,272.50 C195.07,270.24 199.96,270.61 204.39,273.62 C206.51,275.06 209.43,276.62 210.87,277.08 ZM 156.47 562.91 C147.81,569.13 143.24,568.66 136.89,560.90 C126.85,548.62 127.60,543.19 141.04,530.72 C151.77,520.76 161.15,515.82 170.45,515.22 C177.02,514.80 177.81,514.97 180.70,517.40 C185.18,521.17 190.00,528.85 190.00,532.22 C190.00,535.48 186.08,540.01 183.30,539.98 C182.31,539.97 180.38,539.08 179.00,538.02 C176.86,536.37 176.68,535.82 177.76,534.29 C180.73,530.05 181.36,527.91 180.41,525.21 C179.64,523.02 178.75,522.44 175.76,522.19 C170.75,521.77 166.50,523.98 157.50,531.66 C144.55,542.71 140.97,550.09 146.19,554.96 C149.05,557.63 151.55,557.52 156.85,554.49 C161.85,551.63 164.00,551.34 164.00,553.54 C164.00,556.06 161.26,559.47 156.47,562.91 ZM 628.42 555.16 C624.25,560.30 620.28,564.82 619.59,565.21 C618.00,566.10 615.96,564.68 603.00,553.63 C597.22,548.71 587.90,541.13 582.27,536.78 C576.65,532.44 571.83,528.54 571.58,528.12 C570.96,527.13 578.17,518.11 579.63,518.05 C580.25,518.02 581.32,519.37 582.01,521.03 C584.13,526.15 606.86,544.63 614.74,547.64 C619.45,549.45 622.00,548.46 622.00,544.83 C622.00,541.77 613.38,533.29 608.66,531.73 C601.30,529.28 603.63,522.95 611.36,524.41 C615.47,525.19 636.00,541.51 636.00,544.00 C636.00,545.01 632.59,550.03 628.42,555.16 ZM 337.09 674.94 C336.05,676.98 335.45,676.99 326.38,675.06 C317.22,673.12 312.08,670.53 310.27,666.95 C308.62,663.69 308.70,653.07 310.44,644.86 C313.64,629.76 320.18,620.99 328.25,621.01 C333.95,621.01 339.70,622.70 342.06,625.06 C346.04,629.04 342.97,637.08 338.07,635.52 C336.60,635.05 336.00,634.02 336.00,631.93 C336.00,628.64 332.94,625.00 330.17,625.00 C326.94,625.00 324.08,629.37 322.01,637.46 C319.28,648.15 319.30,658.84 322.07,662.37 C326.25,667.67 330.57,664.41 331.67,655.14 C332.33,649.54 331.13,647.00 327.80,647.00 C326.49,647.00 325.96,646.43 326.18,645.25 C326.62,642.98 330.99,642.59 337.50,644.24 C341.88,645.36 342.49,645.83 342.39,648.01 C342.23,651.54 337.97,673.21 337.09,674.94 ZM 642.43 340.50 C646.12,342.42 650.20,344.00 651.49,344.00 C652.78,344.00 656.80,342.42 660.43,340.50 C667.99,336.49 670.08,336.28 676.71,338.87 C682.68,341.19 690.62,342.42 691.41,341.14 C691.74,340.62 689.86,338.95 687.25,337.44 C684.64,335.93 677.91,331.56 672.30,327.73 C663.12,321.46 661.76,320.83 658.80,321.48 C654.76,322.36 648.68,322.38 644.00,321.52 C641.16,321.00 639.72,321.41 636.38,323.69 C624.79,331.59 617.81,336.06 614.11,337.95 C611.85,339.10 610.00,340.48 610.00,341.02 C610.00,342.79 617.36,342.01 624.50,339.48 C628.35,338.12 632.45,337.01 633.61,337.00 C634.77,337.00 638.74,338.58 642.43,340.50 ZM 459.25 664.92 C451.47,666.99 447.06,667.33 446.63,665.88 C446.41,665.12 445.72,658.88 445.09,652.00 C444.39,644.25 442.58,634.17 440.35,625.50 C437.01,612.54 435.92,608.53 437.41,606.96 C438.12,606.21 439.40,606.01 441.30,605.66 C443.94,605.17 446.28,604.95 446.50,605.17 C446.73,605.39 448.28,612.08 449.96,620.04 C453.12,634.95 456.60,646.58 460.66,655.78 C463.79,662.85 463.65,663.75 459.25,664.92 ZM 640.50 363.00 C648.63,367.27 654.68,367.14 663.43,362.50 C667.06,360.58 670.71,359.00 671.55,359.00 C672.38,359.00 675.26,360.11 677.95,361.47 C683.58,364.33 690.44,365.71 691.38,364.19 C691.73,363.62 689.43,361.70 686.26,359.91 C683.09,358.12 678.81,355.16 676.75,353.33 C674.68,351.50 672.51,350.00 671.91,350.00 C671.32,350.00 667.64,351.40 663.73,353.12 C657.49,355.86 655.81,356.18 650.06,355.77 C646.15,355.49 641.80,354.43 639.29,353.15 C633.52,350.20 628.97,350.34 625.95,353.55 C624.63,354.96 620.28,357.92 616.27,360.12 C612.27,362.33 609.00,364.40 609.00,364.71 C609.00,365.98 620.02,364.03 623.83,362.09 C629.43,359.23 633.78,359.47 640.50,363.00 ZM 627.00 312.31 C627.00,313.36 627.57,313.21 634.24,310.40 C639.16,308.33 641.26,307.94 644.46,308.52 C649.59,309.44 653.42,309.43 658.65,308.50 C662.03,307.90 663.86,308.25 668.52,310.38 C671.67,311.82 674.68,313.00 675.21,313.00 C675.74,313.00 672.49,309.06 667.97,304.25 C663.46,299.44 657.90,293.11 655.63,290.19 L 651.50 284.89 L 648.02 289.19 C646.10,291.56 640.59,297.58 635.77,302.56 C630.95,307.55 627.00,311.93 627.00,312.31 ZM 166.91 368.73 C169.69,370.46 171.42,370.84 174.58,370.39 C176.82,370.08 182.89,369.53 188.08,369.16 L 197.50 368.50 L 197.80 362.80 C198.05,358.07 197.73,356.73 195.97,354.97 C194.65,353.65 193.21,353.09 192.17,353.49 C181.93,357.46 172.75,359.38 163.75,359.44 C158.39,359.47 154.00,359.75 154.00,360.05 C154.00,360.55 157.17,362.68 166.91,368.73 ZM 357.84 612.70 C357.19,613.47 355.95,614.45 355.08,614.87 C352.54,616.09 344.85,614.52 343.36,612.47 C340.49,608.56 342.58,593.33 346.59,588.91 C348.92,586.33 355.34,586.34 357.93,588.93 C358.99,589.99 360.17,592.94 360.55,595.50 C361.30,600.51 359.74,610.40 357.84,612.70 ZM 334.95 612.03 C333.95,612.56 332.99,612.96 332.82,612.91 C330.58,612.27 325.90,611.07 323.65,610.56 C320.32,609.80 320.32,609.79 324.12,593.25 C325.59,586.87 326.22,584.10 327.85,583.26 C329.11,582.62 330.96,583.14 334.24,584.05 C339.07,585.39 340.39,588.00 340.28,596.00 C340.18,603.20 337.74,610.53 334.95,612.03 ZM 410.40 613.05 C404.84,614.34 400.01,614.21 399.49,612.75 C398.39,609.69 398.56,602.69 399.75,602.27 C400.47,602.02 401.00,602.65 401.00,603.76 C401.00,606.28 404.35,609.27 406.68,608.83 C407.80,608.62 408.62,607.45 408.81,605.77 C409.08,603.44 408.35,602.56 403.69,599.58 C396.36,594.89 394.80,590.49 399.42,587.46 C402.82,585.24 410.35,585.83 410.84,588.36 C411.03,589.38 410.67,590.73 410.04,591.36 C409.18,592.22 408.45,591.91 407.10,590.13 C405.76,588.35 404.77,587.94 403.10,588.47 C399.66,589.56 400.96,592.04 406.79,595.46 C412.60,598.87 415.99,603.14 415.98,607.00 C415.97,610.70 414.73,612.04 410.40,613.05 ZM 650.50 393.22 C654.35,395.26 657.84,396.95 658.25,396.97 C658.66,396.99 659.00,392.73 659.00,387.50 L 659.00 378.00 L 642.90 378.00 L 643.20 383.75 L 643.50 389.50 ZM 375.67 611.25 C373.97,615.65 373.58,616.00 370.37,616.00 C367.30,616.00 366.71,615.56 365.33,612.25 C364.43,610.10 363.54,604.12 363.24,598.25 C362.73,588.40 362.79,588.00 364.77,588.00 C366.61,588.00 366.90,588.82 367.53,595.75 C368.37,605.01 370.45,610.95 372.23,609.17 C373.84,607.56 374.44,596.26 373.17,591.64 C372.14,587.93 372.17,587.88 374.81,588.19 L 377.50 588.50 L 377.50 597.50 C377.50,603.83 376.96,607.91 375.67,611.25 ZM 500.50 603.86 C502.51,608.06 504.51,611.00 505.21,610.76 C507.25,610.08 511.00,601.88 511.00,598.09 C510.99,592.65 507.74,588.00 503.95,588.00 C496.02,588.00 495.05,592.48 500.50,603.86 ZM 535.98 583.81 C539.21,589.88 541.00,591.53 541.00,588.45 C541.00,586.42 543.75,581.04 546.10,578.46 C547.93,576.45 547.90,576.32 544.45,571.21 C541.60,566.97 540.42,566.00 538.10,566.00 C531.62,566.00 530.68,573.87 535.98,583.81 ZM 197.50 565.49 C201.92,567.52 202.43,567.38 206.44,562.93 C209.33,559.73 210.05,558.19 209.81,555.68 C209.52,552.69 209.23,552.48 205.11,552.19 C199.37,551.77 196.22,553.18 191.01,558.49 L 186.72 562.86 L 190.61 563.49 C192.75,563.83 195.85,564.73 197.50,565.49 ZM 268.55 617.75 C267.98,619.62 268.25,620.00 270.12,620.00 C273.87,620.00 280.43,616.23 282.35,612.98 C287.76,603.83 285.09,595.09 278.25,599.57 C276.07,601.00 270.44,611.56 268.55,617.75 ZM 264.57 327.65 C266.53,330.04 268.78,332.00 269.58,332.00 C270.94,332.00 281.80,324.06 281.89,323.00 C281.96,322.20 273.01,317.00 271.56,317.00 C270.04,317.00 261.00,321.90 261.00,322.73 C261.00,323.04 262.61,325.25 264.57,327.65 ZM 358.00 647.05 C358.00,647.44 358.00,647.71 358.13,647.83 C358.42,648.08 359.38,647.59 362.50,646.00 C364.66,644.90 367.43,644.00 368.65,644.00 C370.52,644.00 370.98,643.28 371.55,639.51 C372.57,632.73 371.57,630.00 368.07,630.00 C364.17,630.00 360.48,634.53 359.09,641.02 C358.49,643.81 358.00,646.53 358.00,647.05 ZM 388.49 615.01 C388.16,615.56 386.44,616.00 384.69,616.00 L 381.50 616.00 L 381.45 602.00 C381.41,588.33 381.46,588.00 383.56,588.00 C385.55,588.00 385.75,588.66 386.36,597.25 C386.72,602.34 387.48,608.19 388.06,610.26 C388.63,612.33 388.83,614.47 388.49,615.01 ZM 349.04 608.07 C350.49,610.78 352.87,610.47 354.02,607.43 C355.41,603.79 355.25,591.65 353.80,590.20 C351.80,588.20 350.25,588.84 349.10,592.15 C347.71,596.13 347.67,605.52 349.04,608.07 ZM 328.15 604.87 C329.20,607.71 330.59,607.55 332.68,604.36 C335.20,600.52 335.26,586.70 332.75,586.20 C331.64,585.98 330.68,586.72 330.10,588.23 C328.54,592.35 327.33,602.65 328.15,604.87 ZM 214.00 372.25 C220.12,375.30 221.15,374.77 220.80,368.75 L 220.50 363.50 L 210.50 363.50 L 210.50 367.00 C210.50,370.00 211.00,370.75 214.00,372.25 ZM 622.50 380.30 C625.25,381.74 628.51,382.93 629.75,382.95 C631.79,383.00 632.00,382.53 632.00,378.00 C632.00,372.21 631.91,372.18 623.50,375.40 L 617.50 377.70 ZM 612.54 304.84 C611.89,306.91 612.03,307.06 613.73,306.15 C614.78,305.58 618.76,302.19 622.57,298.60 C627.62,293.86 628.98,292.07 627.59,292.04 C622.75,291.93 614.32,299.10 612.54,304.84 ZM 97.39 396.58 C98.17,398.60 99.29,398.39 106.15,394.92 C113.45,391.24 112.88,389.64 104.63,390.61 C98.75,391.30 96.18,393.42 97.39,396.58 ZM 359.51 409.02 C360.57,410.73 367.99,410.19 368.69,408.36 C369.46,406.36 366.57,404.00 363.34,404.00 C360.98,404.00 358.45,407.31 359.51,409.02 ZM 393.88 593.90 C393.29,595.61 392.41,597.00 391.93,597.00 C391.45,597.00 391.35,596.26 391.69,595.36 C392.07,594.37 391.63,593.20 390.57,592.43 C388.47,590.89 388.86,587.65 391.19,587.20 C393.76,586.71 395.17,590.21 393.88,593.90 ZM 164.01 325.21 C166.30,327.06 166.38,327.06 168.29,325.15 C170.72,322.72 169.77,321.00 166.00,321.00 C162.07,321.00 161.17,322.91 164.01,325.21 Z" fill="rgba(0,0,0,1)"/>
<path d="M 366.50 559.34 C337.07,555.84 318.57,550.38 293.98,537.91 C275.17,528.38 259.55,517.12 243.98,501.87 C235.46,493.51 224.00,480.41 224.00,479.02 C224.00,478.51 230.53,471.28 238.51,462.96 C254.69,446.08 257.52,442.00 259.38,432.83 L 260.66 426.50 L 269.58 424.75 C282.07,422.29 289.93,419.49 296.76,415.08 C303.56,410.68 306.22,407.62 308.56,401.48 C312.18,391.99 308.50,384.16 292.30,366.84 C290.22,364.62 288.18,362.33 286.36,360.19 C288.89,361.65 291.96,360.92 297.44,358.03 L 303.09 355.06 L 309.20 358.26 C317.16,362.44 325.12,362.72 332.26,359.07 L 337.01 356.64 L 342.76 359.26 C345.92,360.71 349.17,362.10 350.00,362.36 C354.21,363.71 359.16,362.93 361.55,360.55 C366.09,356.00 363.76,350.64 356.76,349.47 C351.67,348.63 348.81,347.24 343.61,343.10 C341.47,341.39 338.77,340.00 337.61,340.00 C336.45,340.00 332.85,341.80 329.62,344.00 C326.32,346.24 322.53,348.00 321.02,348.00 C318.27,348.00 312.10,344.10 308.60,340.15 C305.23,336.36 300.95,337.27 295.10,343.00 C289.70,348.28 286.96,349.08 281.43,346.97 C280.11,346.47 278.81,346.24 278.33,346.40 C278.15,341.51 281.99,337.61 290.75,333.28 L 298.40 329.50 L 462.50 329.50 L 468.00 332.13 C471.02,333.57 475.41,336.42 477.75,338.45 C481.24,341.50 482.00,342.78 482.00,345.68 C482.00,346.60 481.93,347.49 481.76,348.38 C481.74,347.51 480.99,347.52 478.68,347.79 C475.68,348.14 474.50,347.53 469.61,343.10 C462.31,336.49 459.87,336.40 453.02,342.49 C445.20,349.43 441.59,349.63 433.92,343.53 C431.49,341.60 428.42,340.02 427.09,340.01 C425.77,340.00 422.37,341.79 419.54,343.97 C416.24,346.52 412.54,348.33 409.21,349.05 C405.70,349.80 403.37,350.99 402.01,352.72 C399.37,356.08 399.47,357.56 402.59,360.68 C404.93,363.02 405.69,363.21 410.75,362.69 C413.82,362.37 418.55,360.96 421.26,359.55 C423.97,358.15 426.66,357.00 427.24,357.00 C427.82,357.00 430.73,358.19 433.69,359.64 C440.71,363.07 447.58,362.56 455.69,357.98 L 461.27 354.83 L 465.89 357.30 C471.05,360.07 473.05,361.02 474.77,360.02 C472.82,362.29 470.38,364.93 467.35,368.12 C454.55,381.55 451.00,387.38 451.00,395.00 C451.00,401.78 452.80,405.67 458.27,410.69 C466.29,418.06 478.05,422.65 496.12,425.48 C499.59,426.02 499.78,426.25 500.39,430.85 C501.57,439.77 505.46,445.53 521.20,461.69 C529.34,470.04 536.00,477.51 536.00,478.29 C536.00,482.14 519.17,500.52 504.13,513.09 C474.03,538.26 437.67,554.13 400.07,558.53 C388.56,559.88 373.96,560.23 366.50,559.34 ZM 366.43 442.75 C367.31,441.86 368.24,440.82 369.03,439.87 C367.84,441.79 367.09,443.43 367.38,443.71 C367.71,444.04 369.67,444.67 371.74,445.11 C377.77,446.39 392.89,445.28 400.01,443.04 C403.58,441.92 408.48,439.65 410.90,438.00 C413.32,436.35 415.69,435.00 416.18,435.00 C416.66,435.00 420.25,436.61 424.16,438.58 C433.67,443.37 442.82,445.25 450.57,444.00 C459.14,442.62 462.77,437.35 457.97,433.24 C456.36,431.86 453.82,431.47 445.72,431.34 C443.00,431.30 440.51,431.15 438.21,430.88 C441.10,430.03 445.79,424.75 449.13,418.46 C452.76,411.61 451.57,410.57 439.70,410.21 L 430.11 409.93 L 425.97 404.73 C423.70,401.87 419.51,397.92 416.67,395.95 C414.12,394.18 412.69,392.94 411.87,391.60 L 414.00 390.34 C416.64,388.78 417.40,388.73 420.25,389.91 C422.04,390.64 425.75,392.08 428.50,393.09 C431.25,394.11 434.66,394.95 436.07,394.97 C440.85,395.03 448.84,392.02 450.92,389.38 C452.77,387.02 452.82,386.56 451.48,383.97 C449.62,380.36 447.16,379.61 441.89,381.03 C436.31,382.53 432.49,381.69 425.94,377.52 C419.36,373.32 416.03,373.14 411.18,376.71 C409.16,378.20 407.36,379.50 407.20,379.60 C407.04,379.69 407.73,381.11 408.75,382.82 C407.84,381.56 406.64,380.68 405.05,380.02 C394.90,375.82 386.81,386.94 393.47,395.96 L 395.94 399.31 L 393.06 402.59 C391.47,404.39 389.88,406.80 389.52,407.93 C389.09,409.28 388.01,410.00 386.43,410.00 C383.29,410.00 383.30,408.04 386.51,401.15 C389.43,394.87 389.56,393.25 387.37,390.12 C386.06,388.25 385.16,387.92 382.67,388.42 C380.98,388.75 378.61,389.95 377.41,391.08 C375.68,392.71 374.49,392.99 371.67,392.47 C370.48,392.24 369.49,392.01 368.67,391.74 C371.09,392.31 371.99,389.72 369.96,385.93 C368.56,383.30 367.55,383.50 366.09,386.71 C366.02,386.86 365.96,387.00 365.90,387.13 C365.97,386.91 366.05,386.68 366.14,386.44 C368.94,379.02 363.55,371.20 356.50,372.46 C353.41,373.01 350.12,376.03 348.71,379.16 C349.24,376.46 349.34,375.32 348.82,374.77 C348.44,374.38 347.73,374.30 346.62,374.17 C344.66,373.95 342.44,374.78 339.62,376.81 C333.40,381.27 328.12,382.57 322.56,381.02 C318.61,379.91 317.71,379.96 315.46,381.43 C312.07,383.65 311.55,385.29 313.17,388.69 C314.12,390.69 315.95,392.01 319.50,393.27 C326.88,395.87 335.27,394.65 341.10,391.04 C335.32,396.07 333.22,398.53 329.90,403.53 L 325.62 410.00 L 319.00 410.00 C314.80,410.00 311.67,410.53 310.44,411.44 C308.54,412.85 308.56,413.01 311.44,418.57 C315.46,426.35 319.74,430.76 323.48,430.99 C321.48,431.22 319.29,431.34 316.78,431.38 C308.37,431.52 306.85,431.81 305.56,433.52 C302.83,437.13 303.92,440.62 308.40,442.57 C310.10,443.31 314.92,443.94 319.09,443.96 C327.39,444.00 334.15,442.11 342.36,437.46 L 347.22 434.71 L 351.81 436.94 C356.18,439.06 356.47,439.08 357.70,437.39 C357.81,437.25 357.91,437.11 358.00,436.96 C357.84,437.75 357.66,438.63 357.45,439.63 C356.93,442.18 357.23,443.05 359.13,444.38 C362.28,446.58 362.72,446.48 366.43,442.75 ZM 355.50 525.83 C359.96,527.51 374.79,526.74 378.84,524.61 C382.03,522.94 382.34,522.94 385.84,524.64 C388.06,525.72 392.58,526.58 397.32,526.82 C405.92,527.26 411.10,525.85 417.02,521.48 C421.19,518.41 424.07,518.36 429.93,521.25 C436.01,524.24 451.54,524.44 457.00,521.59 C464.54,517.66 466.97,513.11 463.43,509.57 C461.43,507.57 458.57,507.59 452.61,509.62 C445.75,511.95 438.22,511.11 432.93,507.42 C426.93,503.24 424.26,501.35 421.86,501.64 C419.88,501.87 418.07,503.58 414.73,506.69 C406.05,514.75 399.64,515.87 390.00,511.00 C386.73,509.35 383.19,508.00 382.13,508.00 C381.07,508.00 377.64,509.35 374.50,511.00 C365.22,515.88 358.11,514.80 349.81,507.22 C342.67,500.70 341.49,500.38 336.84,503.67 C326.25,511.16 319.19,512.78 311.35,509.50 C306.45,507.46 302.66,507.62 300.54,509.96 C294.77,516.33 308.18,524.70 322.74,523.82 C327.30,523.54 331.49,522.50 335.61,520.63 L 341.73 517.85 L 347.11 521.27 C350.08,523.16 353.85,525.21 355.50,525.83 ZM 425.59 477.43 C430.39,479.18 441.50,479.41 446.10,477.84 C447.97,477.20 451.30,475.48 453.50,474.01 C459.72,469.85 460.64,469.76 466.82,472.75 C471.74,475.13 473.70,475.50 481.50,475.48 C488.87,475.46 491.37,475.03 495.30,473.11 C503.18,469.27 504.97,463.99 499.59,460.47 C497.57,459.14 496.73,459.20 491.42,461.07 C482.26,464.27 476.62,463.45 468.24,457.67 C464.52,455.10 460.94,453.00 460.29,453.00 C459.65,453.00 456.50,455.31 453.31,458.13 C443.32,466.94 437.22,468.10 427.66,463.00 C419.90,458.86 416.60,459.03 414.15,463.68 C411.82,468.10 416.95,474.26 425.59,477.43 ZM 316.69 477.09 C320.41,478.58 323.32,478.95 329.50,478.69 C338.29,478.32 342.45,476.72 347.75,471.69 C351.48,468.15 351.90,464.90 349.00,462.00 C346.24,459.24 343.17,459.49 336.50,463.00 C327.47,467.75 320.68,466.65 312.49,459.10 C306.04,453.15 304.44,452.53 301.05,454.69 C290.71,461.27 288.42,462.35 283.91,462.78 C280.40,463.12 277.35,462.63 273.11,461.04 C266.54,458.59 263.60,459.19 262.08,463.32 C259.94,469.11 269.03,474.98 281.38,475.77 C287.61,476.17 289.50,475.86 295.05,473.54 C301.23,470.96 303.39,470.06 305.19,470.53 C306.17,470.79 307.04,471.45 308.38,472.47 C310.31,473.95 314.05,476.02 316.69,477.09 ZM 355.77 488.17 C360.15,489.25 369.02,488.02 375.58,485.41 C382.94,482.49 383.08,482.49 388.06,485.03 C396.36,489.27 408.59,489.77 413.16,486.07 C415.77,483.96 415.92,479.14 413.43,477.33 C412.43,476.60 409.53,476.00 406.97,476.00 C401.03,476.00 393.88,473.85 388.92,470.57 C383.94,467.27 380.82,467.33 375.11,470.82 C368.71,474.74 364.60,476.00 358.18,476.00 C354.44,476.00 352.07,476.54 350.83,477.65 C347.00,481.12 349.60,486.65 355.77,488.17 ZM 359.51 409.02 C358.45,407.31 360.98,404.00 363.34,404.00 C366.57,404.00 369.46,406.36 368.69,408.36 C367.99,410.19 360.57,410.73 359.51,409.02 ZM 421.00 424.50 C423.35,426.23 427.49,428.20 431.19,429.51 C427.35,428.40 424.07,426.76 421.00,424.50 ZM 347.99 382.52 C347.90,384.32 347.16,385.72 345.47,387.29 C346.65,385.86 347.52,384.25 347.99,382.52 ZM 358.64 431.52 C358.02,429.87 356.68,428.13 354.61,426.21 C356.70,428.13 357.87,429.15 358.38,430.44 C358.51,430.77 358.60,431.13 358.64,431.52 ZM 339.73 424.53 C335.71,427.27 332.42,428.98 328.70,430.01 C332.18,428.86 336.33,426.85 339.73,424.53 ZM 375.18 435.48 C376.88,435.26 379.26,435.11 382.68,434.92 C388.33,434.62 392.16,434.16 395.43,433.06 C392.18,434.16 388.39,434.62 382.83,434.92 C379.90,435.08 377.19,435.28 375.18,435.48 ZM 411.00 389.24 C410.98,389.14 410.96,389.04 410.94,388.94 C410.75,387.80 410.52,386.79 410.24,385.89 C410.69,387.13 410.98,388.36 411.00,389.24 ZM 280.42 352.60 C280.02,352.01 279.73,351.51 279.57,351.15 C279.40,350.77 279.24,350.39 279.10,350.02 C279.47,350.82 279.92,351.70 280.42,352.60 ZM 366.62 390.71 C366.98,390.97 367.32,391.19 367.65,391.35 C367.08,391.10 366.65,390.81 366.33,390.49 C366.42,390.56 366.51,390.63 366.62,390.71 Z" fill="rgba(37,125,187,1)"/>
<path d="M 490.50 412.35 C479.10,409.98 469.45,405.51 465.45,400.76 C460.52,394.89 462.59,390.61 478.48,373.85 C483.51,368.54 490.24,360.26 493.44,355.46 C501.07,344.00 504.31,340.52 517.78,329.29 C529.55,319.49 535.00,313.23 535.00,309.50 C535.00,306.78 532.06,304.00 529.18,304.00 C527.05,304.00 511.36,317.59 498.67,330.42 L 492.82 336.33 L 489.66 332.90 C487.92,331.01 484.82,328.18 482.76,326.62 C480.70,325.06 479.25,323.40 479.54,322.94 C479.82,322.48 485.10,318.65 491.28,314.42 C512.56,299.83 522.84,289.87 533.72,273.25 C536.69,268.71 539.44,264.96 539.81,264.91 C540.19,264.86 542.64,264.73 545.25,264.63 C553.45,264.31 555.96,259.43 553.56,248.50 C552.91,245.55 553.15,245.34 567.20,236.37 C580.79,227.69 585.22,224.62 588.24,225.66 C589.97,226.26 591.24,228.22 593.52,231.25 C599.39,239.06 625.00,277.06 625.00,277.95 C625.00,278.38 622.99,279.50 620.53,280.44 C615.31,282.43 607.18,289.43 602.96,295.56 C598.39,302.21 595.24,303.95 585.84,305.02 C580.62,305.61 575.69,306.89 572.36,308.52 C566.01,311.63 558.63,319.47 554.17,327.84 C550.65,334.44 550.33,338.57 553.20,340.36 C556.37,342.35 559.77,339.82 565.74,331.01 C572.79,320.62 576.57,318.22 587.73,317.06 C592.01,316.61 597.97,315.29 601.00,314.12 C604.03,312.96 606.58,312.00 606.68,312.00 C606.78,312.00 606.61,314.41 606.30,317.36 C605.94,320.82 606.15,322.97 606.87,323.42 C609.30,324.92 607.63,327.66 602.13,331.20 C591.36,338.13 590.41,346.38 599.73,351.94 C601.35,352.90 601.23,353.23 598.43,355.82 C593.60,360.28 592.00,363.14 592.00,367.35 L 592.00 371.26 L 588.25 370.61 C552.23,364.38 517.27,378.88 504.55,405.33 L 500.86 413.00 L 496.68 412.88 C494.38,412.82 491.60,412.58 490.50,412.35 ZM 22.99 417.32 C16.59,407.24 17.35,399.53 26.48,381.58 C33.22,368.34 33.28,368.13 32.75,361.85 C32.36,357.18 30.95,352.72 27.44,345.02 C23.53,336.43 22.59,333.22 22.20,327.26 C21.62,318.22 23.36,313.13 30.15,303.86 C35.91,296.01 40.07,287.11 42.40,277.63 C45.39,265.43 50.56,258.34 60.81,252.40 C74.34,244.56 81.02,238.51 93.00,223.28 C105.48,207.41 107.46,207.75 130.29,229.66 C146.86,245.56 157.21,254.51 164.75,259.47 C167.09,261.01 169.00,262.39 169.00,262.53 C169.00,262.68 167.88,264.75 166.51,267.15 C162.41,274.33 163.53,279.24 170.25,283.49 C171.76,284.45 173.00,285.59 173.00,286.03 C173.00,286.47 171.22,288.24 169.04,289.96 C165.27,292.95 164.96,293.03 162.21,291.61 C155.00,287.88 144.38,276.08 131.62,257.63 C118.84,239.13 112.60,231.99 109.25,232.01 C106.91,232.02 102.82,234.83 99.80,238.50 C98.45,240.15 92.21,248.93 85.95,258.00 C72.33,277.72 68.41,282.10 56.13,291.31 C45.57,299.23 43.01,302.63 43.00,308.72 C43.00,313.79 47.41,319.53 52.28,320.79 C53.98,321.23 55.52,322.07 55.72,322.65 C55.91,323.23 52.67,326.27 48.51,329.39 C38.74,336.75 35.00,341.82 35.00,347.73 C35.00,356.19 43.15,360.75 56.32,359.67 C61.37,359.25 63.03,359.42 62.73,360.30 C62.51,360.96 57.98,364.21 52.66,367.52 C40.32,375.20 36.02,379.44 35.33,384.59 C34.92,387.66 35.30,389.12 37.07,391.37 C43.24,399.19 56.41,398.88 76.10,390.46 C81.97,387.94 84.64,387.24 85.41,388.01 C86.03,388.63 86.35,391.90 86.16,395.79 C85.77,404.19 84.48,405.60 73.00,410.30 C58.57,416.21 36.23,421.98 27.73,422.00 C26.71,422.00 24.70,420.02 22.99,417.32 ZM 722.00 420.53 C717.88,419.83 710.91,418.25 706.52,417.01 C696.40,414.17 675.39,405.66 672.90,403.41 C671.20,401.87 671.00,400.16 671.00,387.35 C671.00,379.46 671.40,373.00 671.88,373.00 C672.36,373.00 674.39,373.68 676.38,374.51 C681.58,376.69 691.49,377.84 696.67,376.87 C711.71,374.06 715.30,364.43 704.17,356.77 C700.02,353.92 699.79,353.55 701.52,352.57 C712.40,346.44 711.10,336.57 698.53,329.91 C693.58,327.28 693.17,326.20 695.64,322.42 C697.03,320.31 697.10,319.29 696.13,316.03 C695.20,312.93 692.42,309.87 682.50,301.04 C670.00,289.90 659.00,277.60 659.00,274.76 C659.00,272.76 671.14,259.69 675.52,256.99 C682.92,252.41 686.38,255.39 691.96,271.13 C698.21,288.74 702.45,295.82 714.93,309.49 C719.38,314.36 724.22,320.80 725.70,323.81 C728.14,328.81 728.43,330.70 729.04,345.39 C729.80,363.67 730.14,364.82 738.69,377.82 C744.46,386.59 747.00,391.76 747.00,394.73 C747.00,395.71 745.43,400.12 743.51,404.51 C741.59,408.90 740.02,413.53 740.01,414.80 C739.99,418.07 735.70,422.02 732.30,421.90 C730.76,421.84 726.12,421.22 722.00,420.53 ZM 308.87 142.59 C306.08,144.46 303.41,146.00 302.93,146.00 C301.26,146.00 300.08,142.22 299.00,133.40 C297.53,121.38 296.43,117.67 293.22,113.85 C290.88,111.06 290.50,109.71 290.50,104.22 L 290.50 97.83 L 286.50 96.45 C281.54,94.74 279.52,92.33 277.38,85.53 C274.71,77.07 274.82,77.00 290.37,77.00 L 303.80 77.00 L 311.65 83.57 C323.46,93.46 329.96,96.17 333.02,92.47 C335.14,89.93 332.73,86.00 329.07,86.00 C327.43,86.00 324.91,85.46 323.46,84.80 C321.12,83.74 320.90,83.20 321.46,80.05 C321.80,78.10 322.34,72.98 322.65,68.68 C322.97,64.23 323.71,60.67 324.36,60.43 C324.99,60.19 327.71,61.12 330.42,62.50 C333.13,63.87 336.58,65.00 338.10,65.00 C339.91,65.00 341.60,65.94 343.03,67.75 C344.87,70.06 345.13,71.38 344.70,76.00 C344.41,79.03 343.01,84.10 341.59,87.28 C337.66,96.05 338.01,98.03 344.49,103.62 C347.51,106.23 350.22,109.13 350.52,110.07 C350.82,111.01 350.15,113.32 349.03,115.22 C347.92,117.11 346.71,121.43 346.36,124.83 C345.87,129.55 345.34,131.01 344.11,131.02 C343.22,131.04 336.65,124.99 329.50,117.58 C312.95,100.44 309.87,98.00 304.83,98.00 C299.81,98.00 299.19,99.72 302.48,104.56 C304.34,107.31 304.91,109.15 304.48,111.07 C303.62,114.99 306.12,117.00 311.84,117.00 L 316.54 117.00 L 318.89 125.98 C320.17,130.92 320.98,135.60 320.68,136.39 C320.38,137.17 318.74,138.12 317.04,138.49 C315.34,138.86 311.66,140.71 308.87,142.59 ZM 430.36 128.42 C423.75,130.12 416.73,130.38 413.50,129.05 C412.40,128.59 410.38,127.01 409.00,125.53 C406.74,123.10 406.46,121.81 406.00,112.00 C405.55,102.25 405.25,100.89 403.06,98.56 C400.63,95.97 400.62,95.95 402.31,91.23 C403.25,88.63 404.01,86.22 404.00,85.89 C404.00,85.55 402.60,83.53 400.90,81.39 C397.88,77.61 397.81,77.26 398.22,69.26 C398.45,64.73 398.96,60.71 399.35,60.32 C399.74,59.92 401.35,60.37 402.94,61.30 C404.63,62.30 407.91,63.00 410.90,63.00 L 416.00 63.00 L 416.00 71.86 C416.00,79.70 415.71,81.15 413.46,84.47 C411.06,88.00 411.01,88.36 412.50,90.64 C413.52,92.20 413.99,94.71 413.80,97.64 C413.52,101.86 413.79,102.45 417.22,105.26 C420.45,107.90 421.15,108.12 422.59,106.93 C423.90,105.84 424.12,104.42 423.68,100.03 C423.29,96.22 423.56,93.72 424.52,92.00 C426.39,88.68 426.38,88.61 423.52,85.20 C421.10,82.33 421.05,81.96 421.67,71.12 C422.22,61.50 422.54,60.00 424.03,60.00 C424.98,60.00 426.29,60.65 426.95,61.45 C427.61,62.24 430.62,63.40 433.64,64.03 C436.77,64.68 439.38,65.82 439.71,66.68 C440.02,67.51 439.68,71.41 438.95,75.34 C437.91,80.93 436.98,83.10 434.73,85.22 C432.01,87.79 431.92,88.13 433.11,91.42 C434.09,94.13 434.10,95.48 433.18,97.50 C431.25,101.73 431.72,104.55 434.55,105.84 C438.25,107.53 439.80,107.29 442.46,104.63 C444.12,102.97 445.03,100.58 445.53,96.57 C446.20,91.24 446.07,90.68 443.48,87.98 C440.88,85.27 440.80,84.90 442.05,81.87 C442.79,80.10 443.41,75.60 443.44,71.87 C443.51,63.30 444.77,61.79 448.92,65.28 C450.59,66.68 453.28,68.12 454.91,68.48 C456.53,68.84 458.41,69.78 459.07,70.59 C461.07,72.99 459.37,83.38 455.43,92.88 C453.46,97.62 450.79,104.77 449.50,108.76 C445.24,121.93 441.79,125.47 430.36,128.42 ZM 258.33 411.25 C254.71,400.79 249.63,393.82 239.17,384.95 C233.29,379.96 233.36,380.19 232.82,364.38 C232.41,352.49 233.97,351.21 244.00,355.18 C248.19,356.85 251.71,357.38 258.76,357.43 L 268.02 357.50 L 272.13 363.00 C274.40,366.02 280.18,372.55 284.99,377.50 C294.09,386.88 297.00,391.21 297.00,395.37 C297.00,401.14 287.61,407.65 274.41,411.02 C264.56,413.54 259.15,413.62 258.33,411.25 ZM 276.97 152.80 C275.90,154.56 274.21,156.00 273.21,156.00 C271.11,156.00 269.00,154.16 269.00,152.34 C269.00,151.64 266.98,148.99 264.50,146.45 C262.02,143.90 260.00,141.48 260.00,141.06 C260.00,140.64 262.59,138.05 265.75,135.30 C272.89,129.09 276.46,122.46 275.70,116.83 C274.23,105.84 265.99,106.40 252.00,118.43 C248.43,121.51 244.44,124.31 243.14,124.65 C238.94,125.76 234.34,122.56 229.67,115.27 C223.87,106.24 223.04,105.62 218.43,106.89 C213.96,108.12 211.63,107.13 209.55,103.09 C208.22,100.52 208.24,100.10 209.79,98.75 C215.15,94.08 219.17,93.95 226.04,98.22 L 231.22 101.43 L 237.36 98.12 C257.70,87.15 264.00,83.66 268.05,85.40 C269.99,86.23 271.41,88.26 273.61,91.25 C276.14,94.69 279.32,99.68 280.67,102.34 L 283.13 107.19 L 282.05 123.60 C280.84,142.11 279.78,148.19 276.97,152.80 ZM 394.50 114.45 C395.00,121.38 394.83,123.93 393.78,125.33 C392.46,127.09 392.33,127.09 390.04,125.23 C387.84,123.45 387.65,122.53 387.51,113.29 C387.37,104.53 387.03,102.73 384.80,98.89 C382.36,94.68 382.31,94.36 383.83,91.19 C387.05,84.47 382.44,82.92 365.21,84.94 C351.92,86.50 349.63,85.10 350.58,76.00 C350.90,72.97 350.66,68.29 350.04,65.59 C348.54,59.02 349.55,58.09 355.75,60.31 C359.45,61.64 363.25,61.96 373.00,61.76 C383.74,61.54 385.88,61.76 388.20,63.33 C392.31,66.12 394.41,72.68 393.56,80.13 C392.99,85.21 393.26,87.34 395.08,92.22 C397.23,97.95 397.24,98.27 395.57,101.77 C394.15,104.76 393.96,106.98 394.50,114.45 ZM 477.23 161.10 C473.46,164.42 471.82,164.68 469.50,162.36 C467.16,160.02 467.84,158.02 477.88,137.48 C489.47,113.75 490.90,111.59 497.00,108.50 C502.35,105.79 502.94,104.37 500.36,100.42 C498.77,98.01 498.87,97.60 502.91,89.21 C508.61,77.37 508.50,77.54 510.36,77.18 C511.59,76.93 512.00,77.61 512.00,79.91 C512.00,82.39 512.75,83.45 515.91,85.44 C526.55,92.16 521.86,105.53 506.39,112.58 C497.91,116.45 496.93,117.81 490.52,134.54 C483.75,152.20 480.91,157.87 477.23,161.10 ZM 514.22 156.25 C512.41,158.32 511.80,158.40 510.20,156.80 C508.49,155.09 508.72,152.94 511.00,149.50 C512.97,146.53 513.66,143.00 512.28,143.00 C511.89,143.00 509.44,145.10 506.83,147.67 C501.45,152.97 497.35,153.80 493.85,150.30 C491.89,148.34 491.88,148.14 493.52,144.96 C494.46,143.15 495.75,139.83 496.40,137.58 C497.37,134.21 498.06,133.44 500.37,133.18 C501.91,133.00 504.98,133.57 507.19,134.46 C509.40,135.34 512.10,135.79 513.19,135.44 C515.93,134.57 525.00,120.41 525.00,116.99 C525.00,115.48 524.33,113.68 523.50,113.00 C522.67,112.32 522.00,111.02 521.99,110.13 C521.99,107.90 527.99,92.83 529.57,91.11 C531.31,89.22 534.00,90.44 534.00,93.12 C534.00,94.37 536.14,97.57 539.00,100.59 C546.55,108.58 545.61,113.47 535.13,120.83 C526.67,126.76 525.00,129.17 525.00,135.44 C525.00,140.03 524.61,140.99 521.52,143.98 C519.60,145.84 517.52,148.96 516.89,150.93 C516.26,152.89 515.06,155.29 514.22,156.25 ZM 478.87 104.46 C473.89,108.64 470.80,107.32 473.02,101.96 C474.70,97.90 473.86,96.47 468.05,93.52 C462.50,90.71 462.06,89.49 464.50,83.65 C465.33,81.68 466.00,77.56 466.00,74.50 C466.00,67.78 467.76,66.48 471.81,70.22 C473.29,71.59 476.67,74.17 479.33,75.95 C484.45,79.40 487.99,84.15 488.00,87.59 C488.00,90.91 482.18,101.67 478.87,104.46 ZM 166.91 368.73 C157.17,362.68 154.00,360.55 154.00,360.05 C154.00,359.75 158.39,359.47 163.75,359.44 C172.75,359.38 181.93,357.46 192.17,353.49 C193.21,353.09 194.65,353.65 195.97,354.97 C197.73,356.73 198.05,358.07 197.80,362.80 L 197.50 368.50 L 188.08 369.16 C182.89,369.53 176.82,370.08 174.58,370.39 C171.42,370.84 169.69,370.46 166.91,368.73 ZM 650.50 393.22 L 643.50 389.50 L 643.20 383.75 L 642.90 378.00 L 659.00 378.00 L 659.00 387.50 C659.00,392.73 658.66,396.99 658.25,396.97 C657.84,396.95 654.35,395.26 650.50,393.22 ZM 264.57 327.65 C262.61,325.25 261.00,323.04 261.00,322.73 C261.00,321.90 270.04,317.00 271.56,317.00 C273.01,317.00 281.96,322.20 281.89,323.00 C281.80,324.06 270.94,332.00 269.58,332.00 C268.78,332.00 266.53,330.04 264.57,327.65 ZM 214.00 372.25 C211.00,370.75 210.50,370.00 210.50,367.00 L 210.50 363.50 L 220.50 363.50 L 220.80 368.75 C221.15,374.77 220.12,375.30 214.00,372.25 ZM 622.50 380.30 L 617.50 377.70 L 623.50 375.40 C631.91,372.18 632.00,372.21 632.00,378.00 C632.00,382.53 631.79,383.00 629.75,382.95 C628.51,382.93 625.25,381.74 622.50,380.30 ZM 612.54 304.84 C614.32,299.10 622.75,291.93 627.59,292.04 C628.98,292.07 627.62,293.86 622.57,298.60 C618.76,302.19 614.78,305.58 613.73,306.15 C612.03,307.06 611.89,306.91 612.54,304.84 ZM 97.39 396.58 C96.18,393.42 98.75,391.30 104.63,390.61 C112.88,389.64 113.45,391.24 106.15,394.92 C99.29,398.39 98.17,398.60 97.39,396.58 ZM 164.01 325.21 C161.17,322.91 162.07,321.00 166.00,321.00 C169.77,321.00 170.72,322.72 168.29,325.15 C166.38,327.06 166.30,327.06 164.01,325.21 Z" fill="rgba(45,79,50,1)"/>
<path d="M 355.50 525.83 C353.85,525.21 350.08,523.16 347.11,521.27 L 341.73 517.85 L 335.61 520.63 C331.49,522.50 327.30,523.54 322.74,523.82 C308.18,524.70 294.77,516.33 300.54,509.96 C302.66,507.62 306.45,507.46 311.35,509.50 C319.19,512.78 326.25,511.16 336.84,503.67 C341.49,500.38 342.67,500.70 349.81,507.22 C358.11,514.80 365.22,515.88 374.50,511.00 C377.64,509.35 381.07,508.00 382.13,508.00 C383.19,508.00 386.73,509.35 390.00,511.00 C399.64,515.87 406.05,514.75 414.73,506.69 C418.07,503.58 419.88,501.87 421.86,501.64 C424.26,501.35 426.93,503.24 432.93,507.42 C438.22,511.11 445.75,511.95 452.61,509.62 C458.57,507.59 461.43,507.57 463.43,509.57 C466.97,513.11 464.54,517.66 457.00,521.59 C451.54,524.44 436.01,524.24 429.93,521.25 C424.07,518.36 421.19,518.41 417.02,521.48 C411.10,525.85 405.92,527.26 397.32,526.82 C392.58,526.58 388.06,525.72 385.84,524.64 C382.34,522.94 382.03,522.94 378.84,524.61 C374.79,526.74 359.96,527.51 355.50,525.83 ZM 350.00 362.36 C349.17,362.10 345.92,360.71 342.76,359.26 L 337.01 356.64 L 332.26 359.07 C325.12,362.72 317.16,362.44 309.20,358.26 L 303.09 355.06 L 297.44 358.03 C289.91,361.99 286.93,361.91 283.66,357.62 C280.54,353.53 277.44,347.23 278.18,346.48 C278.48,346.19 279.94,346.41 281.43,346.97 C286.96,349.08 289.70,348.28 295.10,343.00 C300.95,337.27 305.23,336.36 308.60,340.15 C312.10,344.10 318.27,348.00 321.02,348.00 C322.53,348.00 326.32,346.24 329.62,344.00 C332.85,341.80 336.45,340.00 337.61,340.00 C338.77,340.00 341.47,341.39 343.61,343.10 C348.81,347.24 351.67,348.63 356.76,349.47 C363.76,350.64 366.09,356.00 361.55,360.55 C359.16,362.93 354.21,363.71 350.00,362.36 ZM 425.59 477.43 C416.95,474.26 411.82,468.10 414.15,463.68 C416.60,459.03 419.90,458.86 427.66,463.00 C437.22,468.10 443.32,466.94 453.31,458.13 C456.50,455.31 459.65,453.00 460.29,453.00 C460.94,453.00 464.52,455.10 468.24,457.67 C476.62,463.45 482.26,464.27 491.42,461.07 C496.73,459.20 497.57,459.14 499.59,460.47 C504.97,463.99 503.18,469.27 495.30,473.11 C491.37,475.03 488.87,475.46 481.50,475.48 C473.70,475.50 471.74,475.13 466.82,472.75 C460.64,469.76 459.72,469.85 453.50,474.01 C451.30,475.48 447.97,477.20 446.10,477.84 C441.50,479.41 430.39,479.18 425.59,477.43 ZM 316.69 477.09 C314.05,476.02 310.31,473.95 308.38,472.47 C307.04,471.45 306.17,470.79 305.19,470.53 C303.39,470.06 301.23,470.96 295.05,473.54 C289.50,475.86 287.61,476.17 281.38,475.77 C269.03,474.98 259.94,469.11 262.08,463.32 C263.60,459.19 266.54,458.59 273.11,461.04 C277.35,462.63 280.40,463.12 283.91,462.78 C288.42,462.35 290.71,461.27 301.05,454.69 C304.44,452.53 306.04,453.15 312.49,459.10 C320.68,466.65 327.47,467.75 336.50,463.00 C343.17,459.49 346.24,459.24 349.00,462.00 C351.90,464.90 351.48,468.15 347.75,471.69 C342.45,476.72 338.29,478.32 329.50,478.69 C323.32,478.95 320.41,478.58 316.69,477.09 ZM 402.59 360.68 C399.47,357.56 399.37,356.08 402.01,352.72 C403.37,350.99 405.70,349.80 409.21,349.05 C412.54,348.33 416.24,346.52 419.54,343.97 C422.37,341.79 425.77,340.00 427.09,340.01 C428.42,340.02 431.49,341.60 433.92,343.53 C441.59,349.63 445.20,349.43 453.02,342.49 C459.87,336.40 462.31,336.49 469.61,343.10 C474.50,347.53 475.68,348.14 478.68,347.79 C481.91,347.41 482.08,347.54 481.50,349.87 C481.15,351.23 479.47,354.30 477.76,356.68 C474.28,361.53 473.82,361.55 465.89,357.30 L 461.27 354.83 L 455.69 357.98 C447.58,362.56 440.71,363.07 433.69,359.64 C430.73,358.19 427.82,357.00 427.24,357.00 C426.66,357.00 423.97,358.15 421.26,359.55 C418.55,360.96 413.82,362.37 410.75,362.69 C405.69,363.21 404.93,363.02 402.59,360.68 ZM 371.74 445.11 C369.67,444.67 367.71,444.04 367.38,443.71 C366.90,443.24 369.27,439.06 371.76,436.00 C371.98,435.73 376.96,435.24 382.83,434.92 C394.82,434.27 398.57,432.87 406.47,426.03 C412.07,421.18 415.95,420.78 421.00,424.50 C427.33,429.17 434.57,431.17 445.72,431.34 C453.82,431.47 456.36,431.86 457.97,433.24 C462.77,437.35 459.14,442.62 450.57,444.00 C442.82,445.25 433.67,443.37 424.16,438.58 C420.25,436.61 416.66,435.00 416.18,435.00 C415.69,435.00 413.32,436.35 410.90,438.00 C408.48,439.65 403.58,441.92 400.01,443.04 C392.89,445.28 377.77,446.39 371.74,445.11 ZM 355.77 488.17 C349.60,486.65 347.00,481.12 350.83,477.65 C352.07,476.54 354.44,476.00 358.18,476.00 C364.60,476.00 368.71,474.74 375.11,470.82 C380.82,467.33 383.94,467.27 388.92,470.57 C393.88,473.85 401.03,476.00 406.97,476.00 C409.53,476.00 412.43,476.60 413.43,477.33 C415.92,479.14 415.77,483.96 413.16,486.07 C408.59,489.77 396.36,489.27 388.06,485.03 C383.08,482.49 382.94,482.49 375.58,485.41 C369.02,488.02 360.15,489.25 355.77,488.17 ZM 308.40 442.57 C303.92,440.62 302.83,437.13 305.56,433.52 C306.85,431.81 308.37,431.52 316.78,431.38 C327.12,431.21 332.10,429.73 339.73,424.53 C345.31,420.74 349.13,421.15 354.52,426.13 C359.26,430.50 360.23,433.93 357.70,437.39 C356.47,439.08 356.18,439.06 351.81,436.94 L 347.22 434.71 L 342.36 437.46 C334.15,442.11 327.39,444.00 319.09,443.96 C314.92,443.94 310.10,443.31 308.40,442.57 ZM 428.50 393.09 C425.75,392.08 422.04,390.64 420.25,389.91 C417.40,388.73 416.64,388.78 414.00,390.34 L 411.00 392.11 L 411.00 389.31 C410.99,387.76 410.07,384.99 408.94,383.14 C407.81,381.29 407.03,379.69 407.20,379.60 C407.36,379.50 409.16,378.20 411.18,376.71 C416.03,373.14 419.36,373.32 425.94,377.52 C432.49,381.69 436.31,382.53 441.89,381.03 C447.16,379.61 449.62,380.36 451.48,383.97 C452.82,386.56 452.77,387.02 450.92,389.38 C448.84,392.02 440.85,395.03 436.07,394.97 C434.66,394.95 431.25,394.11 428.50,393.09 ZM 319.50 393.27 C315.95,392.01 314.12,390.69 313.17,388.69 C311.55,385.29 312.07,383.65 315.46,381.43 C317.71,379.96 318.61,379.91 322.56,381.02 C328.12,382.57 333.40,381.27 339.62,376.81 C342.44,374.78 344.66,373.95 346.62,374.17 C347.73,374.30 348.44,374.38 348.82,374.77 C349.49,375.47 349.14,377.17 348.14,381.87 C346.08,391.67 331.46,397.49 319.50,393.27 ZM 366.62 390.71 C365.10,389.60 365.03,389.04 366.09,386.71 C367.55,383.50 368.56,383.30 369.96,385.93 C372.49,390.65 370.47,393.53 366.62,390.71 Z" fill="rgba(101,185,227,1)"/>
<path d="M 56.75 309.43 C55.33,307.99 56.02,307.16 62.49,302.54 C77.04,292.16 85.79,282.16 98.69,261.17 C105.89,249.45 107.75,247.00 109.44,247.00 C110.06,247.00 114.60,253.40 119.53,261.21 C130.96,279.33 138.56,288.79 147.71,296.30 C154.44,301.82 155.00,302.58 155.00,306.09 L 155.00 309.89 L 149.79 308.35 C146.93,307.50 142.14,305.49 139.15,303.90 C132.51,300.35 129.92,300.30 121.40,303.50 C117.06,305.14 112.72,306.00 108.85,306.00 C104.80,306.00 101.07,305.21 97.00,303.50 C93.73,302.12 89.74,301.00 88.13,301.00 C86.51,301.00 81.28,302.88 76.49,305.18 C68.09,309.21 58.55,311.26 56.75,309.43 ZM 49.75 347.44 C49.34,347.01 49.00,346.34 49.00,345.94 C49.00,345.54 54.36,340.91 60.91,335.65 C67.46,330.39 74.50,324.08 76.55,321.64 C78.60,319.19 82.04,316.39 84.19,315.41 C87.97,313.71 88.30,313.71 93.31,315.57 C100.62,318.29 118.36,318.30 125.65,315.59 C131.98,313.24 135.49,314.31 139.96,319.95 C141.57,321.98 146.06,326.29 149.94,329.52 C153.82,332.76 157.00,335.83 157.00,336.36 C157.00,338.17 153.62,345.00 152.73,345.00 C152.24,345.00 148.76,343.65 145.00,342.00 C141.24,340.35 137.18,339.00 135.97,339.00 C134.67,339.00 132.24,340.68 130.04,343.08 C126.31,347.16 126.31,347.16 122.00,346.00 C119.63,345.36 116.08,343.98 114.11,342.92 C109.56,340.48 108.92,340.50 103.22,343.38 C100.62,344.68 97.05,346.07 95.28,346.45 C92.41,347.07 91.62,346.69 87.97,342.97 C83.14,338.05 82.72,338.06 69.69,343.49 C61.14,347.05 51.28,349.00 49.75,347.44 ZM 204.11 315.96 C202.79,315.41 200.13,313.57 198.20,311.87 C194.86,308.94 194.40,308.82 189.09,309.52 C179.01,310.86 171.14,310.57 169.35,308.78 C167.86,307.29 168.14,306.79 172.97,302.33 C179.01,296.75 191.19,287.51 195.36,285.33 C198.03,283.93 198.64,284.01 204.24,286.53 C212.66,290.30 216.67,290.64 223.36,288.14 C226.44,286.99 229.85,285.49 230.94,284.80 C232.73,283.68 233.84,284.45 242.21,292.55 C247.32,297.49 253.52,303.17 256.00,305.16 C258.48,307.16 260.13,309.18 259.67,309.65 C258.71,310.63 250.04,310.57 242.00,309.53 C236.68,308.85 236.34,308.95 231.60,312.66 C226.73,316.48 226.67,316.50 216.60,316.73 C211.05,316.86 205.42,316.51 204.11,315.96 ZM 51.60 384.16 C51.31,383.70 55.36,380.52 60.59,377.10 C65.82,373.67 73.66,367.97 78.01,364.43 C85.85,358.05 85.96,358.00 92.21,357.98 C96.30,357.96 100.02,357.26 102.86,355.98 C108.28,353.52 109.24,353.52 115.76,356.00 C119.00,357.23 123.44,358.00 127.32,358.00 C133.06,358.00 133.89,358.27 136.56,361.09 C138.18,362.79 142.31,366.25 145.75,368.78 C149.19,371.31 152.00,373.69 152.00,374.07 C152.00,374.45 150.66,375.31 149.01,375.99 C145.95,377.27 143.52,377.06 136.41,374.91 C132.76,373.81 131.83,373.90 127.91,375.78 C121.14,379.01 118.48,379.38 114.89,377.60 C110.93,375.62 106.12,375.59 103.56,377.53 C100.91,379.54 97.65,379.37 93.00,377.00 C87.23,374.06 82.06,374.46 72.72,378.56 C65.81,381.60 55.32,385.00 52.85,385.00 C52.45,385.00 51.88,384.62 51.60,384.16 ZM 208.92 348.51 C207.49,347.74 204.65,345.06 202.60,342.55 C197.98,336.92 196.33,336.83 187.04,341.69 C181.83,344.41 178.39,345.49 173.89,345.81 C168.72,346.19 167.86,346.02 168.15,344.67 C168.73,342.02 185.33,322.83 187.88,321.86 C189.76,321.14 191.21,321.56 194.88,323.89 C201.06,327.82 206.48,329.12 216.78,329.15 C224.92,329.17 225.83,328.95 233.62,325.00 C239.71,321.91 242.29,321.07 243.54,321.76 C246.06,323.17 262.98,343.29 262.99,344.89 C263.01,347.51 252.18,345.62 244.22,341.61 C234.71,336.82 233.02,336.92 228.39,342.56 C226.34,345.07 223.40,347.77 221.88,348.56 C218.38,350.37 212.29,350.35 208.92,348.51 ZM 210.87 277.08 C209.43,276.62 206.51,275.06 204.39,273.62 C199.96,270.61 195.07,270.24 189.65,272.50 C185.58,274.20 179.42,274.49 178.51,273.02 C178.18,272.47 180.93,268.31 184.63,263.77 C188.33,259.22 193.33,252.46 195.73,248.75 C198.13,245.04 200.41,242.00 200.80,242.00 C201.18,242.01 203.00,242.92 204.84,244.04 C207.37,245.58 207.99,246.50 207.41,247.79 C206.98,248.73 206.45,251.79 206.23,254.59 C205.86,259.30 206.07,259.88 208.99,262.34 C214.81,267.24 219.58,265.55 229.00,255.28 C232.91,251.01 235.40,248.99 235.71,249.81 C235.99,250.54 239.98,255.88 244.58,261.69 C249.19,267.50 252.72,272.65 252.42,273.13 C251.55,274.54 245.36,274.13 240.98,272.37 C235.76,270.29 230.49,270.99 225.22,274.47 C220.82,277.39 215.07,278.43 210.87,277.08 ZM 642.43 340.50 C638.74,338.58 634.77,337.00 633.61,337.00 C632.45,337.01 628.35,338.12 624.50,339.48 C617.36,342.01 610.00,342.79 610.00,341.02 C610.00,340.48 611.85,339.10 614.11,337.95 C617.81,336.06 624.79,331.59 636.38,323.69 C639.72,321.41 641.16,321.00 644.00,321.52 C648.68,322.38 654.76,322.36 658.80,321.48 C661.76,320.83 663.12,321.46 672.30,327.73 C677.91,331.56 684.64,335.93 687.25,337.44 C689.86,338.95 691.74,340.62 691.41,341.14 C690.62,342.42 682.68,341.19 676.71,338.87 C670.08,336.28 667.99,336.49 660.43,340.50 C656.80,342.42 652.78,344.00 651.49,344.00 C650.20,344.00 646.12,342.42 642.43,340.50 ZM 640.50 363.00 C633.78,359.47 629.43,359.23 623.83,362.09 C620.02,364.03 609.00,365.98 609.00,364.71 C609.00,364.40 612.27,362.33 616.27,360.12 C620.28,357.92 624.63,354.96 625.95,353.55 C628.97,350.34 633.52,350.20 639.29,353.15 C641.80,354.43 646.15,355.49 650.06,355.77 C655.81,356.18 657.49,355.86 663.73,353.12 C667.64,351.40 671.32,350.00 671.91,350.00 C672.51,350.00 674.68,351.50 676.75,353.33 C678.81,355.16 683.09,358.12 686.26,359.91 C689.43,361.70 691.73,363.62 691.38,364.19 C690.44,365.71 683.58,364.33 677.95,361.47 C675.26,360.11 672.38,359.00 671.55,359.00 C670.71,359.00 667.06,360.58 663.43,362.50 C654.68,367.14 648.63,367.27 640.50,363.00 ZM 627.00 312.31 C627.00,311.93 630.95,307.55 635.77,302.56 C640.59,297.58 646.10,291.56 648.02,289.19 L 651.50 284.89 L 655.63 290.19 C657.90,293.11 663.46,299.44 667.97,304.25 C672.49,309.06 675.74,313.00 675.21,313.00 C674.68,313.00 671.67,311.82 668.52,310.38 C663.86,308.25 662.03,307.90 658.65,308.50 C653.42,309.43 649.59,309.44 644.46,308.52 C641.26,307.94 639.16,308.33 634.24,310.40 C627.57,313.21 627.00,313.36 627.00,312.31 Z" fill="rgba(120,154,100,1)"/>
<path d="M 213.22 146.49 C191.07,119.83 172.71,97.40 172.42,96.64 C172.08,95.77 175.14,92.67 180.69,88.25 C221.41,55.82 283.14,31.26 343.39,23.51 C395.65,16.78 451.73,24.85 508.00,47.18 C522.93,53.10 549.19,66.48 561.00,74.17 C573.54,82.34 589.21,95.01 588.63,96.52 C588.27,97.45 513.53,188.11 508.01,194.30 C507.62,194.74 504.87,193.13 501.90,190.72 C477.20,170.73 446.27,157.52 412.00,152.35 C396.27,149.97 364.77,149.98 349.00,152.37 C315.35,157.47 283.36,171.07 259.76,190.32 C256.61,192.89 253.91,194.99 253.76,194.99 C253.62,194.98 235.37,173.16 213.22,146.49 ZM 297.29 316.03 C292.81,314.97 272.66,302.21 263.03,294.34 C258.61,290.73 255.00,287.62 255.00,287.41 C255.00,287.21 256.76,286.14 258.91,285.05 C267.36,280.74 269.37,273.57 264.15,266.37 C263.00,264.78 260.42,261.62 257.69,258.43 C260.20,261.07 260.95,261.20 261.75,260.19 C263.50,257.99 263.33,257.24 260.75,255.92 C260.68,255.88 260.60,255.84 260.51,255.79 C262.63,256.88 263.90,256.64 265.55,255.56 C268.91,253.36 269.66,249.64 267.35,246.62 C266.33,245.29 262.24,241.41 258.25,238.01 L 250.99 231.82 L 251.03 231.78 L 257.76 237.55 C261.47,240.72 265.42,244.37 266.54,245.66 L 268.58 248.01 L 272.33 243.10 C285.10,226.34 308.08,210.63 331.03,202.94 C373.03,188.87 421.26,193.94 456.56,216.15 C468.00,223.34 479.34,233.22 485.93,241.74 L 491.36 248.76 L 493.69 246.36 C492.28,248.09 492.00,249.28 492.00,251.01 C492.00,252.95 496.20,256.80 498.44,256.99 C498.41,257.00 498.38,257.00 498.36,257.00 C497.49,257.00 497.01,257.56 497.29,258.25 C502.45,270.94 504.04,275.54 505.08,280.92 L 506.28 287.09 C499.07,293.86 491.24,299.88 481.21,306.42 C476.64,309.40 473.96,311.54 470.96,313.08 C462.17,317.61 450.71,316.94 381.50,316.88 C336.95,316.83 299.05,316.45 297.29,316.03 ZM 160.82 200.67 C130.75,181.31 105.82,165.15 105.42,164.75 C104.13,163.47 122.23,140.99 136.90,125.65 C144.94,117.25 159.98,103.82 160.94,104.19 C161.39,104.36 179.88,126.32 202.01,153.00 C224.15,179.68 242.96,202.30 243.80,203.27 C245.23,204.90 244.60,205.80 235.38,215.27 C229.90,220.90 223.48,227.86 221.12,230.75 C218.75,233.64 216.52,235.97 216.16,235.93 C215.80,235.89 190.89,220.02 160.82,200.67 ZM 538.41 229.25 C535.20,225.54 528.78,218.59 524.16,213.80 L 515.75 205.11 L 518.77 201.30 C533.52,182.73 599.40,104.43 600.49,104.19 C602.72,103.69 634.55,136.32 645.50,150.34 C651.00,157.38 655.50,163.60 655.50,164.15 C655.50,164.99 545.97,236.00 544.67,236.00 C544.44,236.00 541.62,232.96 538.41,229.25 ZM 308.87 142.59 C311.66,140.71 315.34,138.86 317.04,138.49 C318.74,138.12 320.38,137.17 320.68,136.39 C320.98,135.60 320.17,130.92 318.89,125.98 L 316.54 117.00 L 311.84 117.00 C306.12,117.00 303.62,114.99 304.48,111.07 C304.91,109.15 304.34,107.31 302.48,104.56 C299.19,99.72 299.81,98.00 304.83,98.00 C309.87,98.00 312.95,100.44 329.50,117.58 C336.65,124.99 343.22,131.04 344.11,131.02 C345.34,131.01 345.87,129.55 346.36,124.83 C346.71,121.43 347.92,117.11 349.03,115.22 C350.15,113.32 350.82,111.01 350.52,110.07 C350.22,109.13 347.51,106.23 344.49,103.62 C338.01,98.03 337.66,96.05 341.59,87.28 C343.01,84.10 344.41,79.03 344.70,76.00 C345.13,71.38 344.87,70.06 343.03,67.75 C341.60,65.94 339.91,65.00 338.10,65.00 C336.58,65.00 333.13,63.87 330.42,62.50 C327.71,61.12 324.99,60.19 324.36,60.43 C323.71,60.67 322.97,64.23 322.65,68.68 C322.34,72.98 321.80,78.10 321.46,80.05 C320.90,83.20 321.12,83.74 323.46,84.80 C324.91,85.46 327.43,86.00 329.07,86.00 C332.73,86.00 335.14,89.93 333.02,92.47 C329.96,96.17 323.46,93.46 311.65,83.57 L 303.80 77.00 L 290.37 77.00 C274.82,77.00 274.71,77.07 277.38,85.53 C279.52,92.33 281.54,94.74 286.50,96.45 L 290.50 97.83 L 290.50 104.22 C290.50,109.71 290.88,111.06 293.22,113.85 C296.43,117.67 297.53,121.38 299.00,133.40 C300.08,142.22 301.26,146.00 302.93,146.00 C303.41,146.00 306.08,144.46 308.87,142.59 ZM 430.36 128.42 C441.79,125.47 445.24,121.93 449.50,108.76 C450.79,104.77 453.46,97.62 455.43,92.88 C459.37,83.38 461.07,72.99 459.07,70.59 C458.41,69.78 456.53,68.84 454.91,68.48 C453.28,68.12 450.59,66.68 448.92,65.28 C444.77,61.79 443.51,63.30 443.44,71.87 C443.41,75.60 442.79,80.10 442.05,81.87 C440.80,84.90 440.88,85.27 443.48,87.98 C446.07,90.68 446.20,91.24 445.53,96.57 C445.03,100.58 444.12,102.97 442.46,104.63 C439.80,107.29 438.25,107.53 434.55,105.84 C431.72,104.55 431.25,101.73 433.18,97.50 C434.10,95.48 434.09,94.13 433.11,91.42 C431.92,88.13 432.01,87.79 434.73,85.22 C436.98,83.10 437.91,80.93 438.95,75.34 C439.68,71.41 440.02,67.51 439.71,66.68 C439.38,65.82 436.77,64.68 433.64,64.03 C430.62,63.40 427.61,62.24 426.95,61.45 C426.29,60.65 424.98,60.00 424.03,60.00 C422.54,60.00 422.22,61.50 421.67,71.12 C421.05,81.96 421.10,82.33 423.52,85.20 C426.38,88.61 426.39,88.68 424.52,92.00 C423.56,93.72 423.29,96.22 423.68,100.03 C424.12,104.42 423.90,105.84 422.59,106.93 C421.15,108.12 420.45,107.90 417.22,105.26 C413.79,102.45 413.52,101.86 413.80,97.64 C413.99,94.71 413.52,92.20 412.50,90.64 C411.01,88.36 411.06,88.00 413.46,84.47 C415.71,81.15 416.00,79.70 416.00,71.86 L 416.00 63.00 L 410.90 63.00 C407.91,63.00 404.63,62.30 402.94,61.30 C401.35,60.37 399.74,59.92 399.35,60.32 C398.96,60.71 398.45,64.73 398.22,69.26 C397.81,77.26 397.88,77.61 400.90,81.39 C402.60,83.53 404.00,85.55 404.00,85.89 C404.01,86.22 403.25,88.63 402.31,91.23 C400.62,95.95 400.63,95.97 403.06,98.56 C405.25,100.89 405.55,102.25 406.00,112.00 C406.46,121.81 406.74,123.10 409.00,125.53 C410.38,127.01 412.40,128.59 413.50,129.05 C416.73,130.38 423.75,130.12 430.36,128.42 ZM 276.97 152.80 C279.78,148.19 280.84,142.11 282.05,123.60 L 283.13 107.19 L 280.67 102.34 C279.32,99.68 276.14,94.69 273.61,91.25 C271.41,88.26 269.99,86.23 268.05,85.40 C264.00,83.66 257.70,87.15 237.36,98.12 L 231.22 101.43 L 226.04 98.22 C219.17,93.95 215.15,94.08 209.79,98.75 C208.24,100.10 208.22,100.52 209.55,103.09 C211.63,107.13 213.96,108.12 218.43,106.89 C223.04,105.62 223.87,106.24 229.67,115.27 C234.34,122.56 238.94,125.76 243.14,124.65 C244.44,124.31 248.43,121.51 252.00,118.43 C265.99,106.40 274.23,105.84 275.70,116.83 C276.46,122.46 272.89,129.09 265.75,135.30 C262.59,138.05 260.00,140.64 260.00,141.06 C260.00,141.48 262.02,143.90 264.50,146.45 C266.98,148.99 269.00,151.64 269.00,152.34 C269.00,154.16 271.11,156.00 273.21,156.00 C274.21,156.00 275.90,154.56 276.97,152.80 ZM 394.50 114.45 C393.96,106.98 394.15,104.76 395.57,101.77 C397.24,98.27 397.23,97.95 395.08,92.22 C393.26,87.34 392.99,85.21 393.56,80.13 C394.41,72.68 392.31,66.12 388.20,63.33 C385.88,61.76 383.74,61.54 373.00,61.76 C363.25,61.96 359.45,61.64 355.75,60.31 C349.55,58.09 348.54,59.02 350.04,65.59 C350.66,68.29 350.90,72.97 350.58,76.00 C349.63,85.10 351.92,86.50 365.21,84.94 C382.44,82.92 387.05,84.47 383.83,91.19 C382.31,94.36 382.36,94.68 384.80,98.89 C387.03,102.73 387.37,104.53 387.51,113.29 C387.65,122.53 387.84,123.45 390.04,125.23 C392.33,127.09 392.46,127.09 393.78,125.33 C394.83,123.93 395.00,121.38 394.50,114.45 ZM 477.23 161.10 C480.91,157.87 483.75,152.20 490.52,134.54 C496.93,117.81 497.91,116.45 506.39,112.58 C521.86,105.53 526.55,92.16 515.91,85.44 C512.75,83.45 512.00,82.39 512.00,79.91 C512.00,77.61 511.59,76.93 510.36,77.18 C508.50,77.54 508.61,77.37 502.91,89.21 C498.87,97.60 498.77,98.01 500.36,100.42 C502.94,104.37 502.35,105.79 497.00,108.50 C490.90,111.59 489.47,113.75 477.88,137.48 C467.84,158.02 467.16,160.02 469.50,162.36 C471.82,164.68 473.46,164.42 477.23,161.10 ZM 514.22 156.25 C515.06,155.29 516.26,152.89 516.89,150.93 C517.52,148.96 519.60,145.84 521.52,143.98 C524.61,140.99 525.00,140.03 525.00,135.44 C525.00,129.17 526.67,126.76 535.13,120.83 C545.61,113.47 546.55,108.58 539.00,100.59 C536.14,97.57 534.00,94.37 534.00,93.12 C534.00,90.44 531.31,89.22 529.57,91.11 C527.99,92.83 521.99,107.90 521.99,110.13 C522.00,111.02 522.67,112.32 523.50,113.00 C524.33,113.68 525.00,115.48 525.00,116.99 C525.00,120.41 515.93,134.57 513.19,135.44 C512.10,135.79 509.40,135.34 507.19,134.46 C504.98,133.57 501.91,133.00 500.37,133.18 C498.06,133.44 497.37,134.21 496.40,137.58 C495.75,139.83 494.46,143.15 493.52,144.96 C491.88,148.14 491.89,148.34 493.85,150.30 C497.35,153.80 501.45,152.97 506.83,147.67 C509.44,145.10 511.89,143.00 512.28,143.00 C513.66,143.00 512.97,146.53 511.00,149.50 C508.72,152.94 508.49,155.09 510.20,156.80 C511.80,158.40 512.41,158.32 514.22,156.25 ZM 478.87 104.46 C482.18,101.67 488.00,90.91 488.00,87.59 C487.99,84.15 484.45,79.40 479.33,75.95 C476.67,74.17 473.29,71.59 471.81,70.22 C467.76,66.48 466.00,67.78 466.00,74.50 C466.00,77.56 465.33,81.68 464.50,83.65 C462.06,89.49 462.50,90.71 468.05,93.52 C473.86,96.47 474.70,97.90 473.02,101.96 C470.80,107.32 473.89,108.64 478.87,104.46 ZM 500.31 240.08 C501.46,239.05 502.64,238.01 503.75,237.06 L 510.00 231.70 L 510.03 231.74 L 501.57 239.00 C501.13,239.37 500.71,239.74 500.31,240.08 ZM 513.65 279.67 C513.31,280.04 512.97,280.40 512.65,280.74 C512.09,281.33 511.53,281.91 510.97,282.49 L 513.05 280.31 C513.24,280.10 513.44,279.89 513.65,279.67 Z" fill="rgba(244,242,232,1)"/>
<path d="M 355.50 708.95 C295.14,703.94 237.01,682.85 182.04,646.03 C138.08,616.58 109.48,587.33 92.64,554.62 C80.38,530.79 81.15,522.38 96.90,507.80 C104.80,500.49 113.73,495.41 125.31,491.64 C144.60,485.37 153.37,477.52 169.73,451.88 C182.47,431.91 183.53,430.67 184.88,434.14 C189.04,444.87 190.81,448.78 195.54,457.76 C227.15,517.71 288.07,560.80 355.00,570.56 C372.02,573.04 402.04,572.13 418.53,568.63 C450.05,561.94 482.65,546.48 508.50,525.99 C536.32,503.92 561.31,471.11 573.02,441.25 C574.80,436.71 576.84,433.00 577.55,433.00 C578.26,433.00 583.23,439.86 588.59,448.25 C608.49,479.36 613.43,483.77 638.10,492.43 C649.00,496.25 657.40,501.48 665.55,509.50 C678.52,522.28 679.69,528.91 672.05,546.30 C656.34,582.03 626.33,614.22 579.32,645.79 C537.17,674.10 491.05,694.04 446.99,703.01 C439.00,704.63 426.63,706.66 419.49,707.52 C403.52,709.44 370.31,710.18 355.50,708.95 ZM 380.52 660.25 C380.51,649.39 380.73,637.35 381.00,633.50 L 381.50 626.50 L 371.09 626.21 C361.01,625.94 360.60,626.01 357.92,628.58 C352.42,633.85 348.57,647.40 347.37,665.75 C346.74,675.41 346.79,675.74 349.08,677.35 C350.50,678.34 353.40,679.00 356.33,679.00 L 361.22 679.00 L 360.73 675.75 C360.46,673.96 359.72,669.92 359.08,666.78 C357.04,656.78 360.38,650.00 367.36,650.00 L 370.28 650.00 L 369.60 656.55 C369.24,660.16 368.23,666.52 367.37,670.68 C365.50,679.71 365.69,679.96 374.52,679.98 L 380.54 680.00 L 380.52 660.25 ZM 402.78 678.52 C402.93,678.39 401.69,674.89 400.03,670.74 C395.26,658.81 392.33,642.28 395.15,643.22 C396.75,643.75 403.31,656.56 407.85,668.00 L 411.62 677.50 L 415.46 677.82 C417.57,677.99 419.59,677.66 419.95,677.08 C420.31,676.50 420.07,670.73 419.42,664.26 C418.77,657.79 417.90,646.05 417.50,638.17 L 416.77 623.84 L 411.63 624.54 C408.81,624.92 406.37,625.34 406.21,625.48 C406.06,625.62 407.08,629.18 408.50,633.40 C410.02,637.93 411.28,644.41 411.60,649.28 L 412.13 657.50 L 408.75 650.00 C406.88,645.88 403.43,638.79 401.07,634.25 L 396.78 626.00 L 391.95 626.00 C389.29,626.00 386.87,626.41 386.56,626.91 C386.25,627.41 386.44,632.02 386.98,637.16 C387.53,642.30 388.27,653.70 388.64,662.50 C389.04,672.26 389.73,678.80 390.40,679.26 C391.32,679.89 401.90,679.26 402.78,678.52 ZM 337.09 674.94 C337.97,673.21 342.23,651.54 342.39,648.01 C342.49,645.83 341.88,645.36 337.50,644.24 C330.99,642.59 326.62,642.98 326.18,645.25 C325.96,646.43 326.49,647.00 327.80,647.00 C331.13,647.00 332.33,649.54 331.67,655.14 C330.57,664.41 326.25,667.67 322.07,662.37 C319.30,658.84 319.28,648.15 322.01,637.46 C324.08,629.37 326.94,625.00 330.17,625.00 C332.94,625.00 336.00,628.64 336.00,631.93 C336.00,634.02 336.60,635.05 338.07,635.52 C342.97,637.08 346.04,629.04 342.06,625.06 C339.70,622.70 333.95,621.01 328.25,621.01 C320.18,620.99 313.64,629.76 310.44,644.86 C308.70,653.07 308.62,663.69 310.27,666.95 C312.08,670.53 317.22,673.12 326.38,675.06 C335.45,676.99 336.05,676.98 337.09,674.94 ZM 459.25 664.92 C463.65,663.75 463.79,662.85 460.66,655.78 C456.60,646.58 453.12,634.95 449.96,620.04 C448.28,612.08 446.73,605.39 446.50,605.17 C446.28,604.95 443.94,605.17 441.30,605.66 C435.40,606.75 435.42,606.38 440.35,625.50 C442.58,634.17 444.39,644.25 445.09,652.00 C445.72,658.88 446.41,665.12 446.63,665.88 C447.06,667.33 451.47,666.99 459.25,664.92 ZM 482.67 657.90 C495.37,653.45 497.90,652.09 499.62,648.77 C502.44,643.32 499.31,633.45 492.84,627.36 C488.96,623.71 484.22,621.25 474.60,617.92 C468.00,615.63 462.00,611.43 462.00,609.10 C462.00,606.81 466.05,604.00 469.33,604.00 C471.78,604.00 473.38,604.80 475.34,607.00 C476.81,608.65 478.46,610.00 479.01,610.00 C480.56,610.00 484.00,606.17 484.00,604.43 C484.00,602.51 482.09,598.76 480.60,597.77 C478.14,596.12 468.48,597.03 463.50,599.37 C457.02,602.41 454.87,604.94 454.29,610.21 C453.45,617.92 458.92,623.51 472.29,628.60 C484.09,633.09 489.03,639.97 484.03,644.97 C478.95,650.05 472.09,647.80 468.65,639.92 C467.00,636.13 466.04,635.04 464.50,635.24 C461.41,635.64 461.54,639.67 464.97,649.60 C467.88,658.06 469.86,661.00 472.61,661.00 C473.29,661.00 477.81,659.61 482.67,657.90 ZM 262.45 643.75 C262.83,639.76 263.60,634.39 264.14,631.81 L 265.14 627.13 L 270.82 626.49 C288.04,624.55 296.00,618.55 296.00,607.53 C296.00,603.75 295.44,602.39 292.75,599.56 C289.63,596.29 274.64,589.00 271.03,589.00 C269.90,589.00 267.80,592.96 264.01,602.25 C261.04,609.54 255.80,621.78 252.37,629.45 C248.94,637.12 246.38,643.81 246.70,644.32 C247.35,645.37 258.92,650.88 260.62,650.95 C261.29,650.98 262.03,648.07 262.45,643.75 ZM 525.00 638.89 C525.00,638.30 521.58,634.14 517.41,629.66 C507.59,619.11 506.57,617.22 509.00,614.00 C510.72,611.72 511.00,611.66 513.58,613.04 C516.73,614.71 521.82,621.00 527.21,629.89 C529.25,633.25 531.52,636.00 532.25,636.00 C534.07,636.00 544.28,629.77 544.72,628.39 C545.23,626.79 538.54,619.09 533.02,614.93 C528.40,611.45 524.32,609.21 518.71,607.08 L 515.95 606.03 L 518.60 602.03 C521.96,596.95 522.79,590.42 520.60,586.20 C518.47,582.08 516.24,581.00 509.86,581.00 C505.49,581.00 502.85,581.88 494.54,586.10 C489.02,588.91 484.09,591.59 483.59,592.06 C482.68,592.92 508.37,644.87 510.34,646.17 C511.62,647.01 525.00,640.37 525.00,638.89 ZM 239.73 626.50 C243.23,620.45 250.41,609.08 255.69,601.22 C260.97,593.37 265.11,586.81 264.89,586.65 C255.73,579.67 251.04,580.50 238.12,591.38 C235.71,593.40 233.61,594.94 233.47,594.78 C233.33,594.63 234.28,589.78 235.59,584.00 C236.91,578.22 237.98,572.74 237.99,571.80 C238.00,569.68 232.01,565.00 229.27,565.00 C227.72,565.00 225.37,568.13 219.43,578.11 C215.14,585.32 208.12,596.19 203.82,602.26 C199.52,608.32 196.00,613.90 196.00,614.66 C196.00,616.02 205.98,623.00 207.93,623.00 C208.50,623.00 209.23,621.76 209.56,620.25 C211.24,612.47 214.58,602.65 217.97,595.50 C222.56,585.81 224.49,583.12 225.87,584.50 C226.86,585.49 225.88,592.58 222.86,606.22 C222.17,609.36 221.90,612.23 222.26,612.59 C222.62,612.95 225.74,611.00 229.21,608.27 C240.03,599.71 247.00,596.04 247.00,598.90 C247.00,601.04 237.05,612.75 228.39,620.78 C223.23,625.58 219.00,629.80 219.00,630.17 C219.00,631.31 230.41,637.99 231.93,637.74 C232.72,637.61 236.23,632.55 239.73,626.50 ZM 559.52 619.36 C562.53,617.36 565.00,615.37 565.00,614.95 C565.00,614.52 562.09,612.10 558.53,609.56 C547.91,601.98 543.78,594.86 546.38,588.63 C547.10,586.91 548.49,584.84 549.46,584.03 C551.07,582.70 551.47,582.85 553.61,585.53 C554.91,587.16 558.80,593.55 562.24,599.73 C565.68,605.90 569.09,610.96 569.81,610.98 C571.54,611.01 581.74,603.88 582.46,602.14 C582.80,601.33 579.98,597.78 575.38,593.22 C568.10,586.01 559.35,574.92 550.14,561.25 C547.82,557.81 545.26,555.00 544.45,555.00 C542.51,555.00 529.62,564.40 527.02,567.70 C522.00,574.08 526.52,588.71 539.70,608.74 C546.88,619.66 549.78,623.00 552.10,623.00 C553.16,623.00 556.50,621.36 559.52,619.36 ZM 357.84 612.70 C359.74,610.40 361.30,600.51 360.55,595.50 C360.17,592.94 358.99,589.99 357.93,588.93 C355.34,586.34 348.92,586.33 346.59,588.91 C342.58,593.33 340.49,608.56 343.36,612.47 C344.85,614.52 352.54,616.09 355.08,614.87 C355.95,614.45 357.19,613.47 357.84,612.70 ZM 375.67 611.25 C376.96,607.91 377.50,603.83 377.50,597.50 L 377.50 588.50 L 374.81 588.19 C372.17,587.88 372.14,587.93 373.17,591.64 C374.44,596.26 373.84,607.56 372.23,609.17 C370.45,610.95 368.37,605.01 367.53,595.75 C366.90,588.82 366.61,588.00 364.77,588.00 C362.79,588.00 362.73,588.40 363.24,598.25 C363.54,604.12 364.43,610.10 365.33,612.25 C366.71,615.56 367.30,616.00 370.37,616.00 C373.58,616.00 373.97,615.65 375.67,611.25 ZM 388.49 615.01 C388.83,614.47 388.63,612.33 388.06,610.26 C387.48,608.19 386.72,602.34 386.36,597.25 C385.75,588.66 385.55,588.00 383.56,588.00 C381.46,588.00 381.41,588.33 381.45,602.00 L 381.50 616.00 L 384.69 616.00 C386.44,616.00 388.16,615.56 388.49,615.01 ZM 410.40 613.05 C414.73,612.04 415.97,610.70 415.98,607.00 C415.99,603.14 412.60,598.87 406.79,595.46 C400.96,592.04 399.66,589.56 403.10,588.47 C404.77,587.94 405.76,588.35 407.10,590.13 C408.45,591.91 409.18,592.22 410.04,591.36 C410.67,590.73 411.03,589.38 410.84,588.36 C410.35,585.83 402.82,585.24 399.42,587.46 C394.80,590.49 396.36,594.89 403.69,599.58 C408.35,602.56 409.08,603.44 408.81,605.77 C408.62,607.45 407.80,608.62 406.68,608.83 C404.35,609.27 401.00,606.28 401.00,603.76 C401.00,602.65 400.47,602.02 399.75,602.27 C398.56,602.69 398.39,609.69 399.49,612.75 C400.01,614.21 404.84,614.34 410.40,613.05 ZM 334.95 612.03 C337.74,610.53 340.18,603.20 340.28,596.00 C340.39,588.00 339.07,585.39 334.24,584.05 C326.71,581.96 326.72,581.95 324.12,593.25 C320.32,609.79 320.32,609.80 323.65,610.56 C325.90,611.07 330.58,612.27 332.82,612.91 C332.99,612.96 333.95,612.56 334.95,612.03 ZM 189.10 600.25 C195.23,590.69 198.92,586.14 211.72,572.36 C217.93,565.68 223.00,559.99 223.00,559.70 C223.00,559.42 219.38,555.99 214.97,552.09 C207.26,545.29 206.72,545.00 201.86,545.00 C198.08,545.00 195.27,545.81 190.86,548.15 C179.71,554.10 157.00,575.71 157.00,580.38 C157.00,581.90 158.74,584.36 161.96,587.36 C164.68,589.91 167.17,592.00 167.48,592.00 C167.79,592.00 169.55,588.72 171.37,584.71 C177.56,571.13 184.77,565.90 192.36,569.50 C194.36,570.45 196.00,571.82 196.00,572.54 C196.00,573.26 190.60,578.66 184.00,584.54 C177.40,590.42 172.00,595.59 172.00,596.03 C172.00,596.92 183.13,606.96 184.13,606.99 C184.48,606.99 186.71,603.96 189.10,600.25 ZM 393.88 593.90 C395.17,590.21 393.76,586.71 391.19,587.20 C388.86,587.65 388.47,590.89 390.57,592.43 C391.63,593.20 392.07,594.37 391.69,595.36 C391.35,596.26 391.45,597.00 391.93,597.00 C392.41,597.00 393.29,595.61 393.88,593.90 ZM 601.51 584.87 C609.12,577.49 613.00,573.01 613.00,571.59 C613.00,569.18 600.76,556.57 597.50,555.63 C596.40,555.31 594.83,555.47 594.00,555.99 C592.77,556.77 592.72,557.26 593.76,558.72 C600.08,567.61 600.51,570.64 596.08,575.08 C591.79,579.37 587.82,578.83 581.66,573.13 C575.06,567.02 574.42,561.76 579.58,556.04 C583.62,551.57 583.77,548.65 579.97,548.21 C576.14,547.76 571.90,552.73 571.26,558.42 C570.97,560.94 570.46,562.96 570.12,562.92 C569.78,562.87 567.36,560.39 564.75,557.41 C558.93,550.75 558.53,547.42 563.08,543.59 C566.46,540.74 568.61,540.41 572.42,542.15 C575.60,543.59 578.00,541.90 578.00,538.21 C578.00,534.56 575.27,532.00 571.40,532.00 C567.83,532.00 561.08,537.06 551.58,546.85 L 546.66 551.92 L 554.08 559.73 C558.16,564.03 567.55,573.95 574.93,581.77 C582.32,589.60 588.74,596.00 589.19,596.00 C589.64,596.00 595.18,590.99 601.51,584.87 ZM 156.47 562.91 C161.26,559.47 164.00,556.06 164.00,553.54 C164.00,551.34 161.85,551.63 156.85,554.49 C151.55,557.52 149.05,557.63 146.19,554.96 C140.97,550.09 144.55,542.71 157.50,531.66 C166.50,523.98 170.75,521.77 175.76,522.19 C178.75,522.44 179.64,523.02 180.41,525.21 C181.36,527.91 180.73,530.05 177.76,534.29 C176.68,535.82 176.86,536.37 179.00,538.02 C180.38,539.08 182.31,539.97 183.30,539.98 C186.08,540.01 190.00,535.48 190.00,532.22 C190.00,528.85 185.18,521.17 180.70,517.40 C177.81,514.97 177.02,514.80 170.45,515.22 C161.15,515.82 151.77,520.76 141.04,530.72 C127.60,543.19 126.85,548.62 136.89,560.90 C143.24,568.66 147.81,569.13 156.47,562.91 ZM 628.42 555.16 C632.59,550.03 636.00,545.01 636.00,544.00 C636.00,541.51 615.47,525.19 611.36,524.41 C603.63,522.95 601.30,529.28 608.66,531.73 C613.38,533.29 622.00,541.77 622.00,544.83 C622.00,548.46 619.45,549.45 614.74,547.64 C606.86,544.63 584.13,526.15 582.01,521.03 C581.32,519.37 580.25,518.02 579.63,518.05 C578.17,518.11 570.96,527.13 571.58,528.12 C571.83,528.54 576.65,532.44 582.27,536.78 C587.90,541.13 597.22,548.71 603.00,553.63 C615.96,564.68 618.00,566.10 619.59,565.21 C620.28,564.82 624.25,560.30 628.42,555.16 ZM 62.21 508.47 C54.69,506.84 44.62,502.42 45.43,501.11 C45.75,500.60 49.94,498.05 54.75,495.46 C67.00,488.85 85.85,477.41 103.64,465.81 C114.96,458.43 119.10,455.17 120.03,452.92 C121.60,449.14 120.09,445.27 116.78,444.57 C115.53,444.31 105.05,443.89 93.50,443.64 C71.24,443.17 59.88,441.35 45.61,435.97 L 39.73 433.75 L 50.61 431.00 C66.24,427.04 78.36,422.25 105.00,409.49 C143.08,391.26 155.57,386.47 173.00,383.43 C191.08,380.27 212.31,383.06 225.00,390.26 C232.18,394.34 242.01,404.24 244.94,410.34 C247.08,414.80 248.96,424.00 247.73,424.00 C247.44,424.00 241.87,422.22 235.35,420.05 C220.93,415.24 213.69,414.01 200.00,414.03 C182.45,414.05 176.88,418.17 160.17,443.50 C154.36,452.30 148.04,461.45 146.12,463.83 C141.22,469.91 132.96,475.52 125.16,478.08 C106.92,484.05 93.75,491.99 83.77,503.04 C77.74,509.72 77.33,509.98 73.00,509.91 C70.53,509.87 65.67,509.23 62.21,508.47 ZM 682.47 507.79 C680.92,506.58 677.83,503.60 675.60,501.18 C667.40,492.29 652.89,483.72 637.35,478.59 C622.09,473.55 618.03,469.72 601.12,444.33 C584.11,418.81 579.17,414.91 563.00,414.21 C551.19,413.70 538.13,415.83 524.34,420.54 C518.76,422.44 513.68,424.00 513.05,424.00 C511.27,424.00 512.76,417.34 516.10,410.34 C523.94,393.89 546.88,381.99 570.71,382.00 C586.05,382.01 605.51,386.57 623.83,394.44 C628.05,396.25 643.45,403.41 658.06,410.35 C683.24,422.30 705.89,431.03 715.73,432.58 C718.06,432.95 719.74,433.61 719.47,434.05 C718.73,435.24 704.49,439.80 695.98,441.57 C691.23,442.55 680.47,443.32 666.50,443.66 C642.75,444.24 640.00,444.84 640.00,449.44 C640.00,450.76 640.28,452.58 640.63,453.48 C641.74,456.36 678.85,480.23 702.85,493.50 C709.55,497.20 715.28,500.64 715.58,501.14 C716.97,503.38 696.81,509.94 688.38,509.98 C686.66,509.99 684.01,509.01 682.47,507.79 ZM 505.08 280.92 C504.04,275.54 502.45,270.94 497.29,258.25 C497.01,257.56 497.49,257.00 498.36,257.00 C499.22,257.00 503.95,253.62 508.87,249.50 C513.79,245.38 518.26,242.00 518.82,242.00 C520.71,242.00 531.25,254.91 530.64,256.48 C529.17,260.33 519.11,273.95 513.05,280.31 L 506.33 287.35 L 505.08 280.92 ZM 254.30 254.66 C250.89,250.76 248.28,247.39 248.49,247.17 C248.71,246.96 251.05,248.58 253.69,250.77 C256.34,252.97 259.51,255.28 260.75,255.92 C263.33,257.24 263.50,257.99 261.75,260.19 C260.66,261.56 259.69,260.83 254.30,254.66 ZM 485.93 241.74 C479.34,233.22 468.00,223.34 456.56,216.15 C421.26,193.94 373.03,188.87 331.03,202.94 C308.08,210.63 285.10,226.34 272.33,243.10 L 268.58 248.01 L 266.54 245.66 C265.42,244.37 261.47,240.72 257.76,237.55 L 251.03 231.78 L 259.12 223.14 C269.33,212.23 271.38,208.42 270.50,202.00 L 269.84 197.22 L 280.88 190.57 C343.42,152.89 422.98,153.79 483.72,192.86 L 490.94 197.50 L 490.35 202.57 C489.57,209.31 491.12,212.12 501.59,222.98 L 510.00 231.70 L 503.75 237.06 C500.31,240.01 496.12,243.85 494.43,245.59 L 491.36 248.76 L 485.93 241.74 ZM 358.00 647.05 C358.00,646.53 358.49,643.81 359.09,641.02 C360.48,634.53 364.17,630.00 368.07,630.00 C371.57,630.00 372.57,632.73 371.55,639.51 C370.98,643.28 370.52,644.00 368.65,644.00 C367.43,644.00 364.66,644.90 362.50,646.00 C357.97,648.31 358.00,648.30 358.00,647.05 ZM 268.55 617.75 C270.44,611.56 276.07,601.00 278.25,599.57 C285.09,595.09 287.76,603.83 282.35,612.98 C280.43,616.23 273.87,620.00 270.12,620.00 C268.25,620.00 267.98,619.62 268.55,617.75 ZM 500.50 603.86 C495.05,592.48 496.02,588.00 503.95,588.00 C507.74,588.00 510.99,592.65 511.00,598.09 C511.00,601.88 507.25,610.08 505.21,610.76 C504.51,611.00 502.51,608.06 500.50,603.86 ZM 535.98 583.81 C530.68,573.87 531.62,566.00 538.10,566.00 C540.42,566.00 541.60,566.97 544.45,571.21 C547.90,576.32 547.93,576.45 546.10,578.46 C543.75,581.04 541.00,586.42 541.00,588.45 C541.00,591.53 539.21,589.88 535.98,583.81 ZM 349.04 608.07 C347.67,605.52 347.71,596.13 349.10,592.15 C350.25,588.84 351.80,588.20 353.80,590.20 C355.25,591.65 355.41,603.79 354.02,607.43 C352.87,610.47 350.49,610.78 349.04,608.07 ZM 328.15 604.87 C327.33,602.65 328.54,592.35 330.10,588.23 C330.68,586.72 331.64,585.98 332.75,586.20 C335.26,586.70 335.20,600.52 332.68,604.36 C330.59,607.55 329.20,607.71 328.15,604.87 ZM 197.50 565.49 C195.85,564.73 192.75,563.83 190.61,563.49 L 186.72 562.86 L 191.01 558.49 C196.22,553.18 199.37,551.77 205.11,552.19 C209.23,552.48 209.52,552.69 209.81,555.68 C210.05,558.19 209.33,559.73 206.44,562.93 C202.43,567.38 201.92,567.52 197.50,565.49 Z" fill="rgba(245,176,80,1)"/>
</g>
</svg>